<?xml version="1.0" encoding="UTF-8" standalone="no"?><svg xmlns="http://www.w3.org/2000/svg" xmlns:xlink="http://www.w3.org/1999/xlink" contentStyleType="text/css" height="980px" preserveAspectRatio="none" style="width:1737px;height:980px;background:#FFFFFF;" version="1.1" viewBox="0 0 1737 980" width="1737px" zoomAndPan="magnify"><defs/><g><!--cluster domain.service--><g id="cluster_domain.service"><path d="M8.5,6 L117.5,6 A3.75,3.75 0 0 1 120,8.5 L127,29.6094 L1727.5,29.6094 A2.5,2.5 0 0 1 1730,32.1094 L1730,951.5 A2.5,2.5 0 0 1 1727.5,954 L8.5,954 A2.5,2.5 0 0 1 6,951.5 L6,8.5 A2.5,2.5 0 0 1 8.5,6 " fill="none" style="stroke:#000000;stroke-width:1.5;"/><line style="stroke:#000000;stroke-width:1.5;" x1="6" x2="127" y1="29.6094" y2="29.6094"/><text fill="#000000" font-family="sans-serif" font-size="14" font-weight="bold" lengthAdjust="spacing" textLength="108" x="10" y="22.5332">domain.service</text></g><!--class domain.service.QuestionService--><a href="QuestionService.html" target="_top" title="QuestionService.html" xlink:actuate="onRequest" xlink:href="QuestionService.html" xlink:show="new" xlink:title="QuestionService.html" xlink:type="simple"><g id="elem_domain.service.QuestionService"><rect codeLine="3" fill="#F1F1F1" height="241.7031" id="domain.service.QuestionService" rx="2.5" ry="2.5" style="stroke:#181818;stroke-width:0.5;" width="675" x="1038.5" y="86"/><ellipse cx="1319.75" cy="102" fill="#ADD1B2" rx="11" ry="11" style="stroke:#181818;stroke-width:1.0;"/><path d="M1322.5156,97.875 Q1322.6719,97.6563 1322.8594,97.5469 Q1323.0469,97.4375 1323.2656,97.4375 Q1323.6406,97.4375 1323.875,97.7031 Q1324.1094,97.9531 1324.1094,98.5625 L1324.1094,100.0156 Q1324.1094,100.625 1323.875,100.8906 Q1323.6406,101.1563 1323.2656,101.1563 Q1322.9219,101.1563 1322.7188,100.9531 Q1322.5156,100.7656 1322.4063,100.25 Q1322.3594,99.8906 1322.1719,99.7031 Q1321.8438,99.3281 1321.2344,99.1094 Q1320.625,98.8906 1320,98.8906 Q1319.2344,98.8906 1318.5938,99.2188 Q1317.9688,99.5469 1317.4688,100.2969 Q1316.9844,101.0469 1316.9844,102.0781 L1316.9844,103.1719 Q1316.9844,104.4063 1317.875,105.2344 Q1318.7656,106.0469 1320.3594,106.0469 Q1321.2969,106.0469 1321.9531,105.7969 Q1322.3438,105.6406 1322.7656,105.2031 Q1323.0313,104.9375 1323.1719,104.8594 Q1323.3281,104.7813 1323.5313,104.7813 Q1323.8594,104.7813 1324.1094,105.0469 Q1324.375,105.2969 1324.375,105.6406 Q1324.375,105.9844 1324.0313,106.3906 Q1323.5313,106.9688 1322.7344,107.2969 Q1321.6563,107.75 1320.3594,107.75 Q1318.8438,107.75 1317.6406,107.125 Q1316.6563,106.625 1315.9688,105.5625 Q1315.2813,104.4844 1315.2813,103.2031 L1315.2813,102.0469 Q1315.2813,100.7188 1315.8906,99.5781 Q1316.5156,98.4219 1317.6094,97.8125 Q1318.7031,97.1875 1319.9375,97.1875 Q1320.6719,97.1875 1321.3125,97.3594 Q1321.9688,97.5156 1322.5156,97.875 Z " fill="#000000"/><text fill="#000000" font-family="sans-serif" font-size="14" lengthAdjust="spacing" textLength="104" x="1340.25" y="107.7285">QuestionService</text><line style="stroke:#181818;stroke-width:0.5;" x1="1039.5" x2="1712.5" y1="118" y2="118"/><line style="stroke:#181818;stroke-width:0.5;" x1="1039.5" x2="1712.5" y1="126" y2="126"/><ellipse cx="1049.5" cy="140.3047" fill="#84BE84" rx="3" ry="3" style="stroke:#038048;stroke-width:1.0;"/><text fill="#000000" font-family="sans-serif" font-size="14" lengthAdjust="spacing" textLength="205" x="1058.5" y="144.5332">QuestionService(UserController)</text><ellipse cx="1049.5" cy="157.9141" fill="#84BE84" rx="3" ry="3" style="stroke:#038048;stroke-width:1.0;"/><text fill="#000000" font-family="sans-serif" font-size="14" lengthAdjust="spacing" textLength="382" x="1058.5" y="162.1426">createTextualQuestion(int, String, String, boolean): Question</text><ellipse cx="1049.5" cy="175.5234" fill="#84BE84" rx="3" ry="3" style="stroke:#038048;stroke-width:1.0;"/><text fill="#000000" font-family="sans-serif" font-size="14" lengthAdjust="spacing" textLength="398" x="1058.5" y="179.752">createNumericalQuestion(int, String, String, boolean): Question</text><ellipse cx="1049.5" cy="193.1328" fill="#84BE84" rx="3" ry="3" style="stroke:#038048;stroke-width:1.0;"/><text fill="#000000" font-family="sans-serif" font-size="14" lengthAdjust="spacing" textLength="649" x="1058.5" y="197.3613">createMultipleChoiceQuestion(int, String, String, boolean, int, int, List&lt;String&gt;): MultipleChoiceQuestion</text><ellipse cx="1049.5" cy="210.7422" fill="#84BE84" rx="3" ry="3" style="stroke:#038048;stroke-width:1.0;"/><text fill="#000000" font-family="sans-serif" font-size="14" lengthAdjust="spacing" textLength="274" x="1058.5" y="214.9707">updateQuestionText(Question, String): void</text><ellipse cx="1049.5" cy="228.3516" fill="#84BE84" rx="3" ry="3" style="stroke:#038048;stroke-width:1.0;"/><text fill="#000000" font-family="sans-serif" font-size="14" lengthAdjust="spacing" textLength="238" x="1058.5" y="232.5801">toggleRequiredStatus(Question): void</text><ellipse cx="1049.5" cy="245.9609" fill="#84BE84" rx="3" ry="3" style="stroke:#038048;stroke-width:1.0;"/><text fill="#000000" font-family="sans-serif" font-size="14" lengthAdjust="spacing" textLength="304" x="1058.5" y="250.1895">addOption(MultipleChoiceQuestion, String): void</text><ellipse cx="1049.5" cy="263.5703" fill="#84BE84" rx="3" ry="3" style="stroke:#038048;stroke-width:1.0;"/><text fill="#000000" font-family="sans-serif" font-size="14" lengthAdjust="spacing" textLength="347" x="1058.5" y="267.7988">updateOption(MultipleChoiceQuestion, int, String): void</text><ellipse cx="1049.5" cy="281.1797" fill="#84BE84" rx="3" ry="3" style="stroke:#038048;stroke-width:1.0;"/><text fill="#000000" font-family="sans-serif" font-size="14" lengthAdjust="spacing" textLength="305" x="1058.5" y="285.4082">removeOption(MultipleChoiceQuestion, int): void</text><ellipse cx="1049.5" cy="298.7891" fill="#84BE84" rx="3" ry="3" style="stroke:#038048;stroke-width:1.0;"/><text fill="#000000" font-family="sans-serif" font-size="14" lengthAdjust="spacing" textLength="347" x="1058.5" y="303.0176">updateMinSelections(MultipleChoiceQuestion, int): void</text><ellipse cx="1049.5" cy="316.3984" fill="#84BE84" rx="3" ry="3" style="stroke:#038048;stroke-width:1.0;"/><text fill="#000000" font-family="sans-serif" font-size="14" lengthAdjust="spacing" textLength="350" x="1058.5" y="320.627">updateMaxSelections(MultipleChoiceQuestion, int): void</text></g></a><!--class domain.service.ResponseService--><a href="ResponseService.html" target="_top" title="ResponseService.html" xlink:actuate="onRequest" xlink:href="ResponseService.html" xlink:show="new" xlink:title="ResponseService.html" xlink:type="simple"><g id="elem_domain.service.ResponseService"><rect codeLine="17" fill="#F1F1F1" height="329.75" id="domain.service.ResponseService" rx="2.5" ry="2.5" style="stroke:#181818;stroke-width:0.5;" width="477" x="526.5" y="42"/><ellipse cx="705.25" cy="58" fill="#ADD1B2" rx="11" ry="11" style="stroke:#181818;stroke-width:1.0;"/><path d="M708.0156,53.875 Q708.1719,53.6563 708.3594,53.5469 Q708.5469,53.4375 708.7656,53.4375 Q709.1406,53.4375 709.375,53.7031 Q709.6094,53.9531 709.6094,54.5625 L709.6094,56.0156 Q709.6094,56.625 709.375,56.8906 Q709.1406,57.1563 708.7656,57.1563 Q708.4219,57.1563 708.2188,56.9531 Q708.0156,56.7656 707.9063,56.25 Q707.8594,55.8906 707.6719,55.7031 Q707.3438,55.3281 706.7344,55.1094 Q706.125,54.8906 705.5,54.8906 Q704.7344,54.8906 704.0938,55.2188 Q703.4688,55.5469 702.9688,56.2969 Q702.4844,57.0469 702.4844,58.0781 L702.4844,59.1719 Q702.4844,60.4063 703.375,61.2344 Q704.2656,62.0469 705.8594,62.0469 Q706.7969,62.0469 707.4531,61.7969 Q707.8438,61.6406 708.2656,61.2031 Q708.5313,60.9375 708.6719,60.8594 Q708.8281,60.7813 709.0313,60.7813 Q709.3594,60.7813 709.6094,61.0469 Q709.875,61.2969 709.875,61.6406 Q709.875,61.9844 709.5313,62.3906 Q709.0313,62.9688 708.2344,63.2969 Q707.1563,63.75 705.8594,63.75 Q704.3438,63.75 703.1406,63.125 Q702.1563,62.625 701.4688,61.5625 Q700.7813,60.4844 700.7813,59.2031 L700.7813,58.0469 Q700.7813,56.7188 701.3906,55.5781 Q702.0156,54.4219 703.1094,53.8125 Q704.2031,53.1875 705.4375,53.1875 Q706.1719,53.1875 706.8125,53.3594 Q707.4688,53.5156 708.0156,53.875 Z " fill="#000000"/><text fill="#000000" font-family="sans-serif" font-size="14" lengthAdjust="spacing" textLength="111" x="725.75" y="63.7285">ResponseService</text><line style="stroke:#181818;stroke-width:0.5;" x1="527.5" x2="1002.5" y1="74" y2="74"/><line style="stroke:#181818;stroke-width:0.5;" x1="527.5" x2="1002.5" y1="82" y2="82"/><ellipse cx="537.5" cy="96.3047" fill="#84BE84" rx="3" ry="3" style="stroke:#038048;stroke-width:1.0;"/><text fill="#000000" font-family="sans-serif" font-size="14" lengthAdjust="spacing" textLength="451" x="546.5" y="100.5332">ResponseService(ResponseRepository, UserController, SurveyService)</text><ellipse cx="537.5" cy="113.9141" fill="#84BE84" rx="3" ry="3" style="stroke:#038048;stroke-width:1.0;"/><text fill="#000000" font-family="sans-serif" font-size="14" lengthAdjust="spacing" textLength="307" x="546.5" y="118.1426">getOptionsSelected(String, int, int, int): boolean[]</text><ellipse cx="537.5" cy="131.5234" fill="#84BE84" rx="3" ry="3" style="stroke:#038048;stroke-width:1.0;"/><text fill="#000000" font-family="sans-serif" font-size="14" lengthAdjust="spacing" textLength="169" x="546.5" y="135.752">checkUserLoggedin(): void</text><ellipse cx="537.5" cy="149.1328" fill="#84BE84" rx="3" ry="3" style="stroke:#038048;stroke-width:1.0;"/><text fill="#000000" font-family="sans-serif" font-size="14" lengthAdjust="spacing" textLength="263" x="546.5" y="153.3613">checkResponseExists(String, String): void</text><ellipse cx="537.5" cy="166.7422" fill="#84BE84" rx="3" ry="3" style="stroke:#038048;stroke-width:1.0;"/><text fill="#000000" font-family="sans-serif" font-size="14" lengthAdjust="spacing" textLength="211" x="546.5" y="170.9707">startResponse(String): Response</text><ellipse cx="537.5" cy="184.3516" fill="#84BE84" rx="3" ry="3" style="stroke:#038048;stroke-width:1.0;"/><text fill="#000000" font-family="sans-serif" font-size="14" lengthAdjust="spacing" textLength="288" x="546.5" y="188.5801">startResponseAndGetId(String, String): String</text><ellipse cx="537.5" cy="201.9609" fill="#84BE84" rx="3" ry="3" style="stroke:#038048;stroke-width:1.0;"/><text fill="#000000" font-family="sans-serif" font-size="14" lengthAdjust="spacing" textLength="234" x="546.5" y="206.1895">getQuestions(String): List&lt;Question&gt;</text><ellipse cx="537.5" cy="219.5703" fill="#84BE84" rx="3" ry="3" style="stroke:#038048;stroke-width:1.0;"/><text fill="#000000" font-family="sans-serif" font-size="14" lengthAdjust="spacing" textLength="212" x="546.5" y="223.7988">getQuestion(String, int): Question</text><ellipse cx="537.5" cy="237.1797" fill="#84BE84" rx="3" ry="3" style="stroke:#038048;stroke-width:1.0;"/><text fill="#000000" font-family="sans-serif" font-size="14" lengthAdjust="spacing" textLength="307" x="546.5" y="241.4082">existsQuestionAnswered(List&lt;Answer&gt;): boolean</text><ellipse cx="537.5" cy="254.7891" fill="#84BE84" rx="3" ry="3" style="stroke:#038048;stroke-width:1.0;"/><text fill="#000000" font-family="sans-serif" font-size="14" lengthAdjust="spacing" textLength="257" x="546.5" y="259.0176">getAnswers(String, String): List&lt;Answer&gt;</text><ellipse cx="537.5" cy="272.3984" fill="#84BE84" rx="3" ry="3" style="stroke:#038048;stroke-width:1.0;"/><text fill="#000000" font-family="sans-serif" font-size="14" lengthAdjust="spacing" textLength="254" x="546.5" y="276.627">startAnswer(String, String, int): Question</text><ellipse cx="537.5" cy="290.0078" fill="#84BE84" rx="3" ry="3" style="stroke:#038048;stroke-width:1.0;"/><text fill="#000000" font-family="sans-serif" font-size="14" lengthAdjust="spacing" textLength="381" x="546.5" y="294.2363">updateAnswer(String, String, int, String, TypeQuestion): void</text><ellipse cx="537.5" cy="307.6172" fill="#84BE84" rx="3" ry="3" style="stroke:#038048;stroke-width:1.0;"/><text fill="#000000" font-family="sans-serif" font-size="14" lengthAdjust="spacing" textLength="292" x="546.5" y="311.8457">updateAnswer(String, String, int, Double): void</text><ellipse cx="537.5" cy="325.2266" fill="#84BE84" rx="3" ry="3" style="stroke:#038048;stroke-width:1.0;"/><text fill="#000000" font-family="sans-serif" font-size="14" lengthAdjust="spacing" textLength="245" x="546.5" y="329.4551">incrementResponseCount(String): void</text><ellipse cx="537.5" cy="342.8359" fill="#84BE84" rx="3" ry="3" style="stroke:#038048;stroke-width:1.0;"/><text fill="#000000" font-family="sans-serif" font-size="14" lengthAdjust="spacing" textLength="235" x="546.5" y="347.0645">publishResponse(String, String): void</text><ellipse cx="537.5" cy="360.4453" fill="#84BE84" rx="3" ry="3" style="stroke:#038048;stroke-width:1.0;"/><text fill="#000000" font-family="sans-serif" font-size="14" lengthAdjust="spacing" textLength="263" x="546.5" y="364.6738">getAllResponses(String): List&lt;Response&gt;</text></g></a><!--class domain.service.SurveyService--><a href="SurveyService.html" target="_top" title="SurveyService.html" xlink:actuate="onRequest" xlink:href="SurveyService.html" xlink:show="new" xlink:title="SurveyService.html" xlink:type="simple"><g id="elem_domain.service.SurveyService"><rect codeLine="36" fill="#F1F1F1" height="488.2344" id="domain.service.SurveyService" rx="2.5" ry="2.5" style="stroke:#181818;stroke-width:0.5;" width="422" x="554" y="450"/><ellipse cx="715.25" cy="466" fill="#ADD1B2" rx="11" ry="11" style="stroke:#181818;stroke-width:1.0;"/><path d="M718.0156,461.875 Q718.1719,461.6563 718.3594,461.5469 Q718.5469,461.4375 718.7656,461.4375 Q719.1406,461.4375 719.375,461.7031 Q719.6094,461.9531 719.6094,462.5625 L719.6094,464.0156 Q719.6094,464.625 719.375,464.8906 Q719.1406,465.1563 718.7656,465.1563 Q718.4219,465.1563 718.2188,464.9531 Q718.0156,464.7656 717.9063,464.25 Q717.8594,463.8906 717.6719,463.7031 Q717.3438,463.3281 716.7344,463.1094 Q716.125,462.8906 715.5,462.8906 Q714.7344,462.8906 714.0938,463.2188 Q713.4688,463.5469 712.9688,464.2969 Q712.4844,465.0469 712.4844,466.0781 L712.4844,467.1719 Q712.4844,468.4063 713.375,469.2344 Q714.2656,470.0469 715.8594,470.0469 Q716.7969,470.0469 717.4531,469.7969 Q717.8438,469.6406 718.2656,469.2031 Q718.5313,468.9375 718.6719,468.8594 Q718.8281,468.7813 719.0313,468.7813 Q719.3594,468.7813 719.6094,469.0469 Q719.875,469.2969 719.875,469.6406 Q719.875,469.9844 719.5313,470.3906 Q719.0313,470.9688 718.2344,471.2969 Q717.1563,471.75 715.8594,471.75 Q714.3438,471.75 713.1406,471.125 Q712.1563,470.625 711.4688,469.5625 Q710.7813,468.4844 710.7813,467.2031 L710.7813,466.0469 Q710.7813,464.7188 711.3906,463.5781 Q712.0156,462.4219 713.1094,461.8125 Q714.2031,461.1875 715.4375,461.1875 Q716.1719,461.1875 716.8125,461.3594 Q717.4688,461.5156 718.0156,461.875 Z " fill="#000000"/><text fill="#000000" font-family="sans-serif" font-size="14" lengthAdjust="spacing" textLength="91" x="735.75" y="471.7285">SurveyService</text><line style="stroke:#181818;stroke-width:0.5;" x1="555" x2="975" y1="482" y2="482"/><line style="stroke:#181818;stroke-width:0.5;" x1="555" x2="975" y1="490" y2="490"/><ellipse cx="565" cy="504.3047" fill="#84BE84" rx="3" ry="3" style="stroke:#038048;stroke-width:1.0;"/><text fill="#000000" font-family="sans-serif" font-size="14" lengthAdjust="spacing" textLength="396" x="574" y="508.5332">SurveyService(SurveyRepository, UserController, UserService)</text><ellipse cx="565" cy="521.9141" fill="#84BE84" rx="3" ry="3" style="stroke:#038048;stroke-width:1.0;"/><text fill="#000000" font-family="sans-serif" font-size="14" lengthAdjust="spacing" textLength="169" x="574" y="526.1426">checkUserLoggedin(): void</text><ellipse cx="565" cy="539.5234" fill="#84BE84" rx="3" ry="3" style="stroke:#038048;stroke-width:1.0;"/><text fill="#000000" font-family="sans-serif" font-size="14" lengthAdjust="spacing" textLength="198" x="574" y="543.752">checkSurveyExists(String): void</text><ellipse cx="565" cy="557.1328" fill="#84BE84" rx="3" ry="3" style="stroke:#038048;stroke-width:1.0;"/><text fill="#000000" font-family="sans-serif" font-size="14" lengthAdjust="spacing" textLength="211" x="574" y="561.3613">generateUniqueSurveyId(): String</text><ellipse cx="565" cy="574.7422" fill="#84BE84" rx="3" ry="3" style="stroke:#038048;stroke-width:1.0;"/><text fill="#000000" font-family="sans-serif" font-size="14" lengthAdjust="spacing" textLength="190" x="574" y="578.9707">createSurvey(Survey): Survey</text><ellipse cx="565" cy="592.3516" fill="#84BE84" rx="3" ry="3" style="stroke:#038048;stroke-width:1.0;"/><text fill="#000000" font-family="sans-serif" font-size="14" lengthAdjust="spacing" textLength="308" x="574" y="596.5801">initializeNewSurvey(String, String, String): Survey</text><ellipse cx="565" cy="609.9609" fill="#84BE84" rx="3" ry="3" style="stroke:#038048;stroke-width:1.0;"/><text fill="#000000" font-family="sans-serif" font-size="14" lengthAdjust="spacing" textLength="234" x="574" y="614.1895">checkQuestionExists(String, int): void</text><ellipse cx="565" cy="627.5703" fill="#84BE84" rx="3" ry="3" style="stroke:#038048;stroke-width:1.0;"/><text fill="#000000" font-family="sans-serif" font-size="14" lengthAdjust="spacing" textLength="226" x="574" y="631.7988">getSelectedSurveys(): List&lt;Survey&gt;</text><ellipse cx="565" cy="645.1797" fill="#84BE84" rx="3" ry="3" style="stroke:#038048;stroke-width:1.0;"/><text fill="#000000" font-family="sans-serif" font-size="14" lengthAdjust="spacing" textLength="175" x="574" y="649.4082">getSurveysId(): List&lt;String&gt;</text><ellipse cx="565" cy="662.7891" fill="#84BE84" rx="3" ry="3" style="stroke:#038048;stroke-width:1.0;"/><text fill="#000000" font-family="sans-serif" font-size="14" lengthAdjust="spacing" textLength="182" x="574" y="667.0176">getNumQuestions(String): int</text><ellipse cx="565" cy="680.3984" fill="#84BE84" rx="3" ry="3" style="stroke:#038048;stroke-width:1.0;"/><text fill="#000000" font-family="sans-serif" font-size="14" lengthAdjust="spacing" textLength="234" x="574" y="684.627">getQuestions(String): List&lt;Question&gt;</text><ellipse cx="565" cy="698.0078" fill="#84BE84" rx="3" ry="3" style="stroke:#038048;stroke-width:1.0;"/><text fill="#000000" font-family="sans-serif" font-size="14" lengthAdjust="spacing" textLength="212" x="574" y="702.2363">getQuestion(String, int): Question</text><ellipse cx="565" cy="715.6172" fill="#84BE84" rx="3" ry="3" style="stroke:#038048;stroke-width:1.0;"/><text fill="#000000" font-family="sans-serif" font-size="14" lengthAdjust="spacing" textLength="163" x="574" y="719.8457">getSurvey(String): Survey</text><ellipse cx="565" cy="733.2266" fill="#84BE84" rx="3" ry="3" style="stroke:#038048;stroke-width:1.0;"/><text fill="#000000" font-family="sans-serif" font-size="14" lengthAdjust="spacing" textLength="189" x="574" y="737.4551">getMySurveys(): List&lt;Survey&gt;</text><ellipse cx="565" cy="750.8359" fill="#84BE84" rx="3" ry="3" style="stroke:#038048;stroke-width:1.0;"/><text fill="#000000" font-family="sans-serif" font-size="14" lengthAdjust="spacing" textLength="221" x="574" y="755.0645">existsQuestion(String, int): boolean</text><ellipse cx="565" cy="768.4453" fill="#84BE84" rx="3" ry="3" style="stroke:#038048;stroke-width:1.0;"/><text fill="#000000" font-family="sans-serif" font-size="14" lengthAdjust="spacing" textLength="185" x="574" y="772.6738">existsSurvey(String): boolean</text><ellipse cx="565" cy="786.0547" fill="#84BE84" rx="3" ry="3" style="stroke:#038048;stroke-width:1.0;"/><text fill="#000000" font-family="sans-serif" font-size="14" lengthAdjust="spacing" textLength="239" x="574" y="790.2832">updateSurvey(String, Survey): Survey</text><ellipse cx="565" cy="803.6641" fill="#84BE84" rx="3" ry="3" style="stroke:#038048;stroke-width:1.0;"/><text fill="#000000" font-family="sans-serif" font-size="14" lengthAdjust="spacing" textLength="164" x="574" y="807.8926">deleteSurvey(String): void</text><ellipse cx="565" cy="821.2734" fill="#84BE84" rx="3" ry="3" style="stroke:#038048;stroke-width:1.0;"/><text fill="#000000" font-family="sans-serif" font-size="14" lengthAdjust="spacing" textLength="253" x="574" y="825.502">getSurveysByUser(String): List&lt;Survey&gt;</text><ellipse cx="565" cy="838.8828" fill="#84BE84" rx="3" ry="3" style="stroke:#038048;stroke-width:1.0;"/><text fill="#000000" font-family="sans-serif" font-size="14" lengthAdjust="spacing" textLength="188" x="574" y="843.1113">publishSurvey(String): Survey</text><ellipse cx="565" cy="856.4922" fill="#84BE84" rx="3" ry="3" style="stroke:#038048;stroke-width:1.0;"/><text fill="#000000" font-family="sans-serif" font-size="14" lengthAdjust="spacing" textLength="176" x="574" y="860.7207">closeSurvey(String): Survey</text><ellipse cx="565" cy="874.1016" fill="#84BE84" rx="3" ry="3" style="stroke:#038048;stroke-width:1.0;"/><text fill="#000000" font-family="sans-serif" font-size="14" lengthAdjust="spacing" textLength="200" x="574" y="878.3301">deleteQuestion(String, int): void</text><ellipse cx="565" cy="891.7109" fill="#84BE84" rx="3" ry="3" style="stroke:#038048;stroke-width:1.0;"/><text fill="#000000" font-family="sans-serif" font-size="14" lengthAdjust="spacing" textLength="231" x="574" y="895.9395">reorderQuestion(String, int, int): void</text><ellipse cx="565" cy="909.3203" fill="#84BE84" rx="3" ry="3" style="stroke:#038048;stroke-width:1.0;"/><text fill="#000000" font-family="sans-serif" font-size="14" lengthAdjust="spacing" textLength="245" x="574" y="913.5488">incrementResponseCount(String): void</text><ellipse cx="565" cy="926.9297" fill="#84BE84" rx="3" ry="3" style="stroke:#038048;stroke-width:1.0;"/><text fill="#000000" font-family="sans-serif" font-size="14" lengthAdjust="spacing" textLength="241" x="574" y="931.1582">addSurveyRating(String, double): void</text></g></a><!--class domain.service.UserService--><a href="UserService.html" target="_top" title="UserService.html" xlink:actuate="onRequest" xlink:href="UserService.html" xlink:show="new" xlink:title="UserService.html" xlink:type="simple"><g id="elem_domain.service.UserService"><rect codeLine="64" fill="#F1F1F1" height="294.5313" id="domain.service.UserService" rx="2.5" ry="2.5" style="stroke:#181818;stroke-width:0.5;" width="469" x="22.5" y="59.5"/><ellipse cx="214.75" cy="75.5" fill="#ADD1B2" rx="11" ry="11" style="stroke:#181818;stroke-width:1.0;"/><path d="M217.5156,71.375 Q217.6719,71.1563 217.8594,71.0469 Q218.0469,70.9375 218.2656,70.9375 Q218.6406,70.9375 218.875,71.2031 Q219.1094,71.4531 219.1094,72.0625 L219.1094,73.5156 Q219.1094,74.125 218.875,74.3906 Q218.6406,74.6563 218.2656,74.6563 Q217.9219,74.6563 217.7188,74.4531 Q217.5156,74.2656 217.4063,73.75 Q217.3594,73.3906 217.1719,73.2031 Q216.8438,72.8281 216.2344,72.6094 Q215.625,72.3906 215,72.3906 Q214.2344,72.3906 213.5938,72.7188 Q212.9688,73.0469 212.4688,73.7969 Q211.9844,74.5469 211.9844,75.5781 L211.9844,76.6719 Q211.9844,77.9063 212.875,78.7344 Q213.7656,79.5469 215.3594,79.5469 Q216.2969,79.5469 216.9531,79.2969 Q217.3438,79.1406 217.7656,78.7031 Q218.0313,78.4375 218.1719,78.3594 Q218.3281,78.2813 218.5313,78.2813 Q218.8594,78.2813 219.1094,78.5469 Q219.375,78.7969 219.375,79.1406 Q219.375,79.4844 219.0313,79.8906 Q218.5313,80.4688 217.7344,80.7969 Q216.6563,81.25 215.3594,81.25 Q213.8438,81.25 212.6406,80.625 Q211.6563,80.125 210.9688,79.0625 Q210.2813,77.9844 210.2813,76.7031 L210.2813,75.5469 Q210.2813,74.2188 210.8906,73.0781 Q211.5156,71.9219 212.6094,71.3125 Q213.7031,70.6875 214.9375,70.6875 Q215.6719,70.6875 216.3125,70.8594 Q216.9688,71.0156 217.5156,71.375 Z " fill="#000000"/><text fill="#000000" font-family="sans-serif" font-size="14" lengthAdjust="spacing" textLength="76" x="235.25" y="81.2285">UserService</text><line style="stroke:#181818;stroke-width:0.5;" x1="23.5" x2="490.5" y1="91.5" y2="91.5"/><line style="stroke:#181818;stroke-width:0.5;" x1="23.5" x2="490.5" y1="99.5" y2="99.5"/><ellipse cx="33.5" cy="113.8047" fill="#84BE84" rx="3" ry="3" style="stroke:#038048;stroke-width:1.0;"/><text fill="#000000" font-family="sans-serif" font-size="14" lengthAdjust="spacing" textLength="443" x="42.5" y="118.0332">UserService(UserRepository, SurveyRepository, ResponseRepository)</text><ellipse cx="33.5" cy="131.4141" fill="#84BE84" rx="3" ry="3" style="stroke:#038048;stroke-width:1.0;"/><text fill="#000000" font-family="sans-serif" font-size="14" lengthAdjust="spacing" textLength="338" x="42.5" y="135.6426">registerUser(String, String, String, String, String): void</text><ellipse cx="33.5" cy="149.0234" fill="#84BE84" rx="3" ry="3" style="stroke:#038048;stroke-width:1.0;"/><text fill="#000000" font-family="sans-serif" font-size="14" lengthAdjust="spacing" textLength="232" x="42.5" y="153.252">verifyCredentials(String, String): void</text><ellipse cx="33.5" cy="166.6328" fill="#84BE84" rx="3" ry="3" style="stroke:#038048;stroke-width:1.0;"/><text fill="#000000" font-family="sans-serif" font-size="14" lengthAdjust="spacing" textLength="245" x="42.5" y="170.8613">addSurveyCreated(String, String): void</text><ellipse cx="33.5" cy="184.2422" fill="#84BE84" rx="3" ry="3" style="stroke:#038048;stroke-width:1.0;"/><text fill="#000000" font-family="sans-serif" font-size="14" lengthAdjust="spacing" textLength="268" x="42.5" y="188.4707">removeSurveyCreated(String, String): void</text><ellipse cx="33.5" cy="201.8516" fill="#84BE84" rx="3" ry="3" style="stroke:#038048;stroke-width:1.0;"/><text fill="#000000" font-family="sans-serif" font-size="14" lengthAdjust="spacing" textLength="270" x="42.5" y="206.0801">addResponseId(String, String, String): void</text><ellipse cx="33.5" cy="219.4609" fill="#84BE84" rx="3" ry="3" style="stroke:#038048;stroke-width:1.0;"/><text fill="#000000" font-family="sans-serif" font-size="14" lengthAdjust="spacing" textLength="185" x="42.5" y="223.6895">loginUser(String, String): void</text><ellipse cx="33.5" cy="237.0703" fill="#84BE84" rx="3" ry="3" style="stroke:#038048;stroke-width:1.0;"/><text fill="#000000" font-family="sans-serif" font-size="14" lengthAdjust="spacing" textLength="160" x="42.5" y="241.2988">logoutUser(String): String</text><ellipse cx="33.5" cy="254.6797" fill="#84BE84" rx="3" ry="3" style="stroke:#038048;stroke-width:1.0;"/><text fill="#000000" font-family="sans-serif" font-size="14" lengthAdjust="spacing" textLength="189" x="42.5" y="258.9082">deleteUserok(String): boolean</text><ellipse cx="33.5" cy="272.2891" fill="#84BE84" rx="3" ry="3" style="stroke:#038048;stroke-width:1.0;"/><text fill="#000000" font-family="sans-serif" font-size="14" lengthAdjust="spacing" textLength="133" x="42.5" y="276.5176">getUser(String): User</text><ellipse cx="33.5" cy="289.8984" fill="#84BE84" rx="3" ry="3" style="stroke:#038048;stroke-width:1.0;"/><text fill="#000000" font-family="sans-serif" font-size="14" lengthAdjust="spacing" textLength="241" x="42.5" y="294.127">startPasswordRecovery(String): String</text><ellipse cx="33.5" cy="307.5078" fill="#84BE84" rx="3" ry="3" style="stroke:#038048;stroke-width:1.0;"/><text fill="#000000" font-family="sans-serif" font-size="14" lengthAdjust="spacing" textLength="282" x="42.5" y="311.7363">verifySecurityAnswer(String, String): boolean</text><ellipse cx="33.5" cy="325.1172" fill="#84BE84" rx="3" ry="3" style="stroke:#038048;stroke-width:1.0;"/><text fill="#000000" font-family="sans-serif" font-size="14" lengthAdjust="spacing" textLength="219" x="42.5" y="329.3457">resetPassword(String, String): void</text><ellipse cx="33.5" cy="342.7266" fill="#84BE84" rx="3" ry="3" style="stroke:#038048;stroke-width:1.0;"/><text fill="#000000" font-family="sans-serif" font-size="14" lengthAdjust="spacing" textLength="245" x="42.5" y="346.9551">validatePasswordStrength(String): void</text></g></a><!--link domain.service.ResponseService to domain.service.SurveyService--><g id="link_domain.service.ResponseService_domain.service.SurveyService"><path codeLine="81" d="M765,372.2 C765,395.55 765,419.98 765,444.49 " fill="none" id="domain.service.ResponseService-to-domain.service.SurveyService" style="stroke:#181818;stroke-width:1.0;"/><polygon fill="#181818" points="765,449.72,769,440.72,765,444.72,761,440.72,765,449.72" style="stroke:#181818;stroke-width:1.0;"/><text fill="#000000" font-family="sans-serif" font-size="13" lengthAdjust="spacing" textLength="79" x="766" y="416.4951">surveyService</text></g><text fill="#888888" font-family="sans-serif" font-size="10" lengthAdjust="spacing" textLength="184" x="769.5" y="970.3809">UMLDoclet 2.1.0, PlantUML 1.2022.14</text><!--SRC=[lLPTJzim57tdL_XbKggLQjiZcYgnCasJA6CjF24UGd99BLoxs4uXc_RVTnF7QUBO8Q1fVMXhvtxv-9wJImWXFDw2siK9a5HiOyfd2kIUulBtqH6fFmcBbI8_Sr2Q2hwk3Mvkd9tPHc_PxIrwajRdlMCLNME6XU1Q2iP0Jhh6YOHOmnKywpncrZEYN4_9MalAiyFldH0COZuvQIhpXRh8jo1fyc-2BNEcwOx1OYFm9ACYJadrjFewfqf_Di_dcCaVhPittwMOrpuhSOdimgR2I7j1qwwV5bd6O0MFEPMGhdMiSzLuUZtYDFsnguxZhsimdIdp1VyMJDuW4hPYFoB8G0LBYct682bjrLjZnCzlY_77PSmAcOKnuC0OPoV06CSgikiLx8IYMiXYIheiGbnpkOUYzd18bO4sg2fpC4WZswM7vZG7ghlsvjPf_mqa3sNAS-mhI2cFl01MPhRQhy_OxYhgyiBhfdGijNMB6aExCs1yojDleB-d_IpcJmy7Uu7gaAPYfTsV1ptQa0Lb0gepssUdN3q1qY-gKfZL_01oBvMny43MzlUWOPv4hW8D5MfQFUnuM5mLEnWKZfT3dOdyZe7NcN9KrYtmvaON8kSw6cYM7SQYQkEqos1_bT0oPZtSgxVxyp2HE-H26dVM0H9tR2Ap6Y9mkVRJzpNaCtawr0j0ma7YjLrp-fY3yK8Q1OXZtdx6gZvAQLdzSU-JQXep-WikuCawE3rnuAWdG7KAss-EX8Hq6-_N2fi9gI9xkMRTPtLjPuxSVY_tB760y8W6blA_jQMfEXe44CsMnIWOkcBbrE3LAEFXLk4rDQhWTi1GwwHuXOv7yBRDyRuK9IiSjBr7hKLZ37u94mh669fw0_3vfXiXKv0- -x3Jw-KHnxXQQsADDasQrAl1FQLhgH3gN6iLKBcMHJNOjnMkhtdzGMRYWfJX7O9itMj_iXwX-7kS-U-B1Rvx4JlKer5ZI0FTefAxT8oFcLbVxOQfB1QzuMNGaOcCSWyw8MEHwov7VF9kEhcq4mylq1h9rurNhZmZoIKsqnCs_0eIn4SMmmMOwrf3aakg2-ye4If8We8csnXGzlXsAgN9-g0fy4nl0gHgCSGTvu-Fvzt9u8IezlAevPzW7u8azqAKFzVBypEH8EZaq-pZxCEKNBAOQzmbxn0ALSh3v2y0]--></g></svg>