<?xml version="1.0" encoding="UTF-8" standalone="no"?><svg xmlns="http://www.w3.org/2000/svg" xmlns:xlink="http://www.w3.org/1999/xlink" contentStyleType="text/css" height="714px" preserveAspectRatio="none" style="width:1547px;height:714px;background:#FFFFFF;" version="1.1" viewBox="0 0 1547 714" width="1547px" zoomAndPan="magnify"><defs/><g><!--cluster domain.service--><g id="cluster_domain.service"><path d="M8.5,6 L105.625,6 A3.75,3.75 0 0 1 108.125,8.5 L115.125,26.9775 L1537.5,26.9775 A2.5,2.5 0 0 1 1540,29.4775 L1540,687.8 A2.5,2.5 0 0 1 1537.5,690.3 L8.5,690.3 A2.5,2.5 0 0 1 6,687.8 L6,8.5 A2.5,2.5 0 0 1 8.5,6 " fill="none" style="stroke:#000000;stroke-width:1.5;"/><line style="stroke:#000000;stroke-width:1.5;" x1="6" x2="115.125" y1="26.9775" y2="26.9775"/><text fill="#000000" font-family="sans-serif" font-size="14" font-weight="bold" lengthAdjust="spacing" textLength="96.125" x="10" y="20.0313">domain.service</text></g><!--class domain.service.AnswerService--><a href="AnswerService.html" target="_top" title="AnswerService.html" xlink:actuate="onRequest" xlink:href="AnswerService.html" xlink:show="new" xlink:title="AnswerService.html" xlink:type="simple"><g id="elem_domain.service.AnswerService"><rect codeLine="3" fill="#F1F1F1" height="62.9775" id="domain.service.AnswerService" rx="2.5" ry="2.5" style="stroke:#181818;stroke-width:0.5;" width="327" x="22.5" y="136.35"/><ellipse cx="138.25" cy="152.35" fill="#ADD1B2" rx="11" ry="11" style="stroke:#181818;stroke-width:1.0;"/><path d="M141.4375,157.9906 Q139.9219,158.8031 137.8906,158.8031 Q135.2344,158.8031 133.625,157.0844 Q132.0313,155.3656 132.0313,152.6 Q132.0313,149.6469 133.8281,147.8031 Q135.625,145.9594 138.375,145.9594 Q140.125,145.9594 141.4375,146.5531 L141.4375,148.6625 Q139.8438,147.7562 138.3594,147.7562 Q136.4219,147.7562 135.2188,149.0531 Q134.0156,150.3344 134.0156,152.5219 Q134.0156,154.5844 135.125,155.8031 Q136.25,157.0219 138.0781,157.0219 Q139.7813,157.0219 141.4375,156.0219 L141.4375,157.9906 Z " fill="#000000"/><text fill="#000000" font-family="sans-serif" font-size="14" lengthAdjust="spacing" textLength="87" x="158.75" y="156.8925">AnswerService</text><line style="stroke:#181818;stroke-width:0.5;" x1="23.5" x2="348.5" y1="168.35" y2="168.35"/><line style="stroke:#181818;stroke-width:0.5;" x1="23.5" x2="348.5" y1="176.35" y2="176.35"/><ellipse cx="33.5" cy="189.3388" fill="#84BE84" rx="3" ry="3" style="stroke:#038048;stroke-width:1.0;"/><text fill="#000000" font-family="sans-serif" font-size="14" lengthAdjust="spacing" textLength="301" x="42.5" y="192.3812">AnswerService(AnswerRepository, UserController)</text></g></a><!--class domain.service.QuestionService--><a href="QuestionService.html" target="_top" title="QuestionService.html" xlink:actuate="onRequest" xlink:href="QuestionService.html" xlink:show="new" xlink:title="QuestionService.html" xlink:type="simple"><g id="elem_domain.service.QuestionService"><rect codeLine="7" fill="#F1F1F1" height="212.7529" id="domain.service.QuestionService" rx="2.5" ry="2.5" style="stroke:#181818;stroke-width:0.5;" width="660" x="385" y="61.46"/><ellipse cx="661.75" cy="77.46" fill="#ADD1B2" rx="11" ry="11" style="stroke:#181818;stroke-width:1.0;"/><path d="M664.9375,83.1006 Q663.4219,83.9131 661.3906,83.9131 Q658.7344,83.9131 657.125,82.1944 Q655.5313,80.4756 655.5313,77.71 Q655.5313,74.7569 657.3281,72.9131 Q659.125,71.0694 661.875,71.0694 Q663.625,71.0694 664.9375,71.6631 L664.9375,73.7725 Q663.3438,72.8662 661.8594,72.8662 Q659.9219,72.8662 658.7188,74.1631 Q657.5156,75.4444 657.5156,77.6319 Q657.5156,79.6944 658.625,80.9131 Q659.75,82.1319 661.5781,82.1319 Q663.2813,82.1319 664.9375,81.1319 L664.9375,83.1006 Z " fill="#000000"/><text fill="#000000" font-family="sans-serif" font-size="14" lengthAdjust="spacing" textLength="98" x="682.25" y="82.0025">QuestionService</text><line style="stroke:#181818;stroke-width:0.5;" x1="386" x2="1044" y1="93.46" y2="93.46"/><line style="stroke:#181818;stroke-width:0.5;" x1="386" x2="1044" y1="101.46" y2="101.46"/><ellipse cx="396" cy="114.4488" fill="#84BE84" rx="3" ry="3" style="stroke:#038048;stroke-width:1.0;"/><text fill="#000000" font-family="sans-serif" font-size="14" lengthAdjust="spacing" textLength="323" x="405" y="117.4912">QuestionService(QuestionRepository, UserController)</text><ellipse cx="396" cy="129.4263" fill="#84BE84" rx="3" ry="3" style="stroke:#038048;stroke-width:1.0;"/><text fill="#000000" font-family="sans-serif" font-size="14" lengthAdjust="spacing" textLength="365" x="405" y="132.4688">createTextualQuestion(int, String, String, boolean): Question</text><ellipse cx="396" cy="144.4038" fill="#84BE84" rx="3" ry="3" style="stroke:#038048;stroke-width:1.0;"/><text fill="#000000" font-family="sans-serif" font-size="14" lengthAdjust="spacing" textLength="383" x="405" y="147.4463">createNumericalQuestion(int, String, String, boolean): Question</text><ellipse cx="396" cy="159.3814" fill="#84BE84" rx="3" ry="3" style="stroke:#038048;stroke-width:1.0;"/><text fill="#000000" font-family="sans-serif" font-size="14" lengthAdjust="spacing" textLength="634" x="405" y="162.4239">createMultipleChoiceQuestion(int, String, String, boolean, int, int, List&lt;String&gt;): MultipleChoiceQuestion</text><ellipse cx="396" cy="174.3589" fill="#84BE84" rx="3" ry="3" style="stroke:#038048;stroke-width:1.0;"/><text fill="#000000" font-family="sans-serif" font-size="14" lengthAdjust="spacing" textLength="264" x="405" y="177.4014">updateQuestionText(Question, String): void</text><ellipse cx="396" cy="189.3365" fill="#84BE84" rx="3" ry="3" style="stroke:#038048;stroke-width:1.0;"/><text fill="#000000" font-family="sans-serif" font-size="14" lengthAdjust="spacing" textLength="228" x="405" y="192.3789">toggleRequiredStatus(Question): void</text><ellipse cx="396" cy="204.314" fill="#84BE84" rx="3" ry="3" style="stroke:#038048;stroke-width:1.0;"/><text fill="#000000" font-family="sans-serif" font-size="14" lengthAdjust="spacing" textLength="297" x="405" y="207.3565">addOption(MultipleChoiceQuestion, String): void</text><ellipse cx="396" cy="219.2915" fill="#84BE84" rx="3" ry="3" style="stroke:#038048;stroke-width:1.0;"/><text fill="#000000" font-family="sans-serif" font-size="14" lengthAdjust="spacing" textLength="340" x="405" y="222.334">updateOption(MultipleChoiceQuestion, int, String): void</text><ellipse cx="396" cy="234.2691" fill="#84BE84" rx="3" ry="3" style="stroke:#038048;stroke-width:1.0;"/><text fill="#000000" font-family="sans-serif" font-size="14" lengthAdjust="spacing" textLength="300" x="405" y="237.3116">removeOption(MultipleChoiceQuestion, int): void</text><ellipse cx="396" cy="249.2466" fill="#84BE84" rx="3" ry="3" style="stroke:#038048;stroke-width:1.0;"/><text fill="#000000" font-family="sans-serif" font-size="14" lengthAdjust="spacing" textLength="338" x="405" y="252.2891">updateMinSelections(MultipleChoiceQuestion, int): void</text><ellipse cx="396" cy="264.2242" fill="#84BE84" rx="3" ry="3" style="stroke:#038048;stroke-width:1.0;"/><text fill="#000000" font-family="sans-serif" font-size="14" lengthAdjust="spacing" textLength="340" x="405" y="267.2666">updateMaxSelections(MultipleChoiceQuestion, int): void</text></g></a><!--class domain.service.ResponseService--><a href="ResponseService.html" target="_top" title="ResponseService.html" xlink:actuate="onRequest" xlink:href="ResponseService.html" xlink:show="new" xlink:title="ResponseService.html" xlink:type="simple"><g id="elem_domain.service.ResponseService"><rect codeLine="21" fill="#F1F1F1" height="257.6855" id="domain.service.ResponseService" rx="2.5" ry="2.5" style="stroke:#181818;stroke-width:0.5;" width="443" x="1080.5" y="39"/><ellipse cx="1247.75" cy="55" fill="#ADD1B2" rx="11" ry="11" style="stroke:#181818;stroke-width:1.0;"/><path d="M1250.9375,60.6406 Q1249.4219,61.4531 1247.3906,61.4531 Q1244.7344,61.4531 1243.125,59.7344 Q1241.5313,58.0156 1241.5313,55.25 Q1241.5313,52.2969 1243.3281,50.4531 Q1245.125,48.6094 1247.875,48.6094 Q1249.625,48.6094 1250.9375,49.2031 L1250.9375,51.3125 Q1249.3438,50.4063 1247.8594,50.4063 Q1245.9219,50.4063 1244.7188,51.7031 Q1243.5156,52.9844 1243.5156,55.1719 Q1243.5156,57.2344 1244.625,58.4531 Q1245.75,59.6719 1247.5781,59.6719 Q1249.2813,59.6719 1250.9375,58.6719 L1250.9375,60.6406 Z " fill="#000000"/><text fill="#000000" font-family="sans-serif" font-size="14" lengthAdjust="spacing" textLength="100" x="1268.25" y="59.5425">ResponseService</text><line style="stroke:#181818;stroke-width:0.5;" x1="1081.5" x2="1522.5" y1="71" y2="71"/><line style="stroke:#181818;stroke-width:0.5;" x1="1081.5" x2="1522.5" y1="79" y2="79"/><ellipse cx="1091.5" cy="91.9888" fill="#84BE84" rx="3" ry="3" style="stroke:#038048;stroke-width:1.0;"/><text fill="#000000" font-family="sans-serif" font-size="14" lengthAdjust="spacing" textLength="417" x="1100.5" y="95.0313">ResponseService(ResponseRepository, UserController, SurveyService)</text><ellipse cx="1091.5" cy="106.9663" fill="#84BE84" rx="3" ry="3" style="stroke:#038048;stroke-width:1.0;"/><text fill="#000000" font-family="sans-serif" font-size="14" lengthAdjust="spacing" textLength="296" x="1100.5" y="110.0088">getOptionsSelected(String, int, int, int): boolean[]</text><ellipse cx="1091.5" cy="121.9438" fill="#84BE84" rx="3" ry="3" style="stroke:#038048;stroke-width:1.0;"/><text fill="#000000" font-family="sans-serif" font-size="14" lengthAdjust="spacing" textLength="160" x="1100.5" y="124.9863">checkUserLoggedin(): void</text><ellipse cx="1091.5" cy="136.9214" fill="#84BE84" rx="3" ry="3" style="stroke:#038048;stroke-width:1.0;"/><text fill="#000000" font-family="sans-serif" font-size="14" lengthAdjust="spacing" textLength="245" x="1100.5" y="139.9639">checkResponseExists(String, String): void</text><ellipse cx="1091.5" cy="151.8989" fill="#84BE84" rx="3" ry="3" style="stroke:#038048;stroke-width:1.0;"/><text fill="#000000" font-family="sans-serif" font-size="14" lengthAdjust="spacing" textLength="171" x="1100.5" y="154.9414">getValidResponseId(): String</text><ellipse cx="1091.5" cy="166.8765" fill="#84BE84" rx="3" ry="3" style="stroke:#038048;stroke-width:1.0;"/><text fill="#000000" font-family="sans-serif" font-size="14" lengthAdjust="spacing" textLength="173" x="1100.5" y="169.9189">startResponse(String): String</text><ellipse cx="1091.5" cy="181.854" fill="#84BE84" rx="3" ry="3" style="stroke:#038048;stroke-width:1.0;"/><text fill="#000000" font-family="sans-serif" font-size="14" lengthAdjust="spacing" textLength="230" x="1100.5" y="184.8965">getQuestions(String): List&lt;Question&gt;</text><ellipse cx="1091.5" cy="196.8315" fill="#84BE84" rx="3" ry="3" style="stroke:#038048;stroke-width:1.0;"/><text fill="#000000" font-family="sans-serif" font-size="14" lengthAdjust="spacing" textLength="206" x="1100.5" y="199.874">getQuestion(String, int): Question</text><ellipse cx="1091.5" cy="211.8091" fill="#84BE84" rx="3" ry="3" style="stroke:#038048;stroke-width:1.0;"/><text fill="#000000" font-family="sans-serif" font-size="14" lengthAdjust="spacing" textLength="299" x="1100.5" y="214.8516">existsQuestionAnswered(List&lt;Answer&gt;): boolean</text><ellipse cx="1091.5" cy="226.7866" fill="#84BE84" rx="3" ry="3" style="stroke:#038048;stroke-width:1.0;"/><text fill="#000000" font-family="sans-serif" font-size="14" lengthAdjust="spacing" textLength="251" x="1100.5" y="229.8291">getAnswers(String, String): List&lt;Answer&gt;</text><ellipse cx="1091.5" cy="241.7642" fill="#84BE84" rx="3" ry="3" style="stroke:#038048;stroke-width:1.0;"/><text fill="#000000" font-family="sans-serif" font-size="14" lengthAdjust="spacing" textLength="246" x="1100.5" y="244.8066">startAnswer(String, String, int): Question</text><ellipse cx="1091.5" cy="256.7417" fill="#84BE84" rx="3" ry="3" style="stroke:#038048;stroke-width:1.0;"/><text fill="#000000" font-family="sans-serif" font-size="14" lengthAdjust="spacing" textLength="366" x="1100.5" y="259.7842">updateAnswer(String, String, int, String, TypeQuestion): void</text><ellipse cx="1091.5" cy="271.7192" fill="#84BE84" rx="3" ry="3" style="stroke:#038048;stroke-width:1.0;"/><text fill="#000000" font-family="sans-serif" font-size="14" lengthAdjust="spacing" textLength="282" x="1100.5" y="274.7617">updateAnswer(String, String, int, Double): void</text><ellipse cx="1091.5" cy="286.6968" fill="#84BE84" rx="3" ry="3" style="stroke:#038048;stroke-width:1.0;"/><text fill="#000000" font-family="sans-serif" font-size="14" lengthAdjust="spacing" textLength="234" x="1100.5" y="289.7393">incrementResponseCount(String): void</text></g></a><!--class domain.service.SurveyService--><a href="SurveyService.html" target="_top" title="SurveyService.html" xlink:actuate="onRequest" xlink:href="SurveyService.html" xlink:show="new" xlink:title="SurveyService.html" xlink:type="simple"><g id="elem_domain.service.SurveyService"><rect codeLine="38" fill="#F1F1F1" height="302.6182" id="domain.service.SurveyService" rx="2.5" ry="2.5" style="stroke:#181818;stroke-width:0.5;" width="320" x="1142" y="371.68"/><ellipse cx="1256.25" cy="387.68" fill="#ADD1B2" rx="11" ry="11" style="stroke:#181818;stroke-width:1.0;"/><path d="M1259.4375,393.3206 Q1257.9219,394.1331 1255.8906,394.1331 Q1253.2344,394.1331 1251.625,392.4144 Q1250.0313,390.6956 1250.0313,387.93 Q1250.0313,384.9769 1251.8281,383.1331 Q1253.625,381.2894 1256.375,381.2894 Q1258.125,381.2894 1259.4375,381.8831 L1259.4375,383.9925 Q1257.8438,383.0862 1256.3594,383.0862 Q1254.4219,383.0862 1253.2188,384.3831 Q1252.0156,385.6644 1252.0156,387.8519 Q1252.0156,389.9144 1253.125,391.1331 Q1254.25,392.3519 1256.0781,392.3519 Q1257.7813,392.3519 1259.4375,391.3519 L1259.4375,393.3206 Z " fill="#000000"/><text fill="#000000" font-family="sans-serif" font-size="14" lengthAdjust="spacing" textLength="83" x="1276.75" y="392.2225">SurveyService</text><line style="stroke:#181818;stroke-width:0.5;" x1="1143" x2="1461" y1="403.68" y2="403.68"/><line style="stroke:#181818;stroke-width:0.5;" x1="1143" x2="1461" y1="411.68" y2="411.68"/><ellipse cx="1153" cy="424.6688" fill="#84BE84" rx="3" ry="3" style="stroke:#038048;stroke-width:1.0;"/><text fill="#000000" font-family="sans-serif" font-size="14" lengthAdjust="spacing" textLength="293" x="1162" y="427.7112">SurveyService(SurveyRepository, UserController)</text><ellipse cx="1153" cy="439.6463" fill="#84BE84" rx="3" ry="3" style="stroke:#038048;stroke-width:1.0;"/><text fill="#000000" font-family="sans-serif" font-size="14" lengthAdjust="spacing" textLength="160" x="1162" y="442.6888">checkUserLoggedin(): void</text><ellipse cx="1153" cy="454.6238" fill="#84BE84" rx="3" ry="3" style="stroke:#038048;stroke-width:1.0;"/><text fill="#000000" font-family="sans-serif" font-size="14" lengthAdjust="spacing" textLength="185" x="1162" y="457.6663">checkSurveyExists(String): void</text><ellipse cx="1153" cy="469.6014" fill="#84BE84" rx="3" ry="3" style="stroke:#038048;stroke-width:1.0;"/><text fill="#000000" font-family="sans-serif" font-size="14" lengthAdjust="spacing" textLength="202" x="1162" y="472.6439">generateUniqueSurveyId(): String</text><ellipse cx="1153" cy="484.5789" fill="#84BE84" rx="3" ry="3" style="stroke:#038048;stroke-width:1.0;"/><text fill="#000000" font-family="sans-serif" font-size="14" lengthAdjust="spacing" textLength="175" x="1162" y="487.6214">createSurvey(Survey): Survey</text><ellipse cx="1153" cy="499.5565" fill="#84BE84" rx="3" ry="3" style="stroke:#038048;stroke-width:1.0;"/><text fill="#000000" font-family="sans-serif" font-size="14" lengthAdjust="spacing" textLength="294" x="1162" y="502.5989">initializeNewSurvey(String, String, String): Survey</text><ellipse cx="1153" cy="514.534" fill="#84BE84" rx="3" ry="3" style="stroke:#038048;stroke-width:1.0;"/><text fill="#000000" font-family="sans-serif" font-size="14" lengthAdjust="spacing" textLength="223" x="1162" y="517.5765">checkQuestionExists(String, int): void</text><ellipse cx="1153" cy="529.5115" fill="#84BE84" rx="3" ry="3" style="stroke:#038048;stroke-width:1.0;"/><text fill="#000000" font-family="sans-serif" font-size="14" lengthAdjust="spacing" textLength="214" x="1162" y="532.554">getSelectedSurveys(): List&lt;Survey&gt;</text><ellipse cx="1153" cy="544.4891" fill="#84BE84" rx="3" ry="3" style="stroke:#038048;stroke-width:1.0;"/><text fill="#000000" font-family="sans-serif" font-size="14" lengthAdjust="spacing" textLength="171" x="1162" y="547.5316">getSurveysId(): List&lt;String&gt;</text><ellipse cx="1153" cy="559.4666" fill="#84BE84" rx="3" ry="3" style="stroke:#038048;stroke-width:1.0;"/><text fill="#000000" font-family="sans-serif" font-size="14" lengthAdjust="spacing" textLength="179" x="1162" y="562.5091">getNumQuestions(String): int</text><ellipse cx="1153" cy="574.4442" fill="#84BE84" rx="3" ry="3" style="stroke:#038048;stroke-width:1.0;"/><text fill="#000000" font-family="sans-serif" font-size="14" lengthAdjust="spacing" textLength="230" x="1162" y="577.4866">getQuestions(String): List&lt;Question&gt;</text><ellipse cx="1153" cy="589.4217" fill="#84BE84" rx="3" ry="3" style="stroke:#038048;stroke-width:1.0;"/><text fill="#000000" font-family="sans-serif" font-size="14" lengthAdjust="spacing" textLength="206" x="1162" y="592.4642">getQuestion(String, int): Question</text><ellipse cx="1153" cy="604.3992" fill="#84BE84" rx="3" ry="3" style="stroke:#038048;stroke-width:1.0;"/><text fill="#000000" font-family="sans-serif" font-size="14" lengthAdjust="spacing" textLength="153" x="1162" y="607.4417">getSurvey(String): Survey</text><ellipse cx="1153" cy="619.3768" fill="#84BE84" rx="3" ry="3" style="stroke:#038048;stroke-width:1.0;"/><text fill="#000000" font-family="sans-serif" font-size="14" lengthAdjust="spacing" textLength="184" x="1162" y="622.4193">getMySurveys(): List&lt;Survey&gt;</text><ellipse cx="1153" cy="634.3543" fill="#84BE84" rx="3" ry="3" style="stroke:#038048;stroke-width:1.0;"/><text fill="#000000" font-family="sans-serif" font-size="14" lengthAdjust="spacing" textLength="212" x="1162" y="637.3968">existsQuestion(String, int): boolean</text><ellipse cx="1153" cy="649.3319" fill="#84BE84" rx="3" ry="3" style="stroke:#038048;stroke-width:1.0;"/><text fill="#000000" font-family="sans-serif" font-size="14" lengthAdjust="spacing" textLength="174" x="1162" y="652.3743">existsSurvey(String): boolean</text><ellipse cx="1153" cy="664.3094" fill="#84BE84" rx="3" ry="3" style="stroke:#038048;stroke-width:1.0;"/><text fill="#000000" font-family="sans-serif" font-size="14" lengthAdjust="spacing" textLength="234" x="1162" y="667.3519">incrementResponseCount(String): void</text></g></a><!--class domain.service.UserService--><a href="UserService.html" target="_top" title="UserService.html" xlink:actuate="onRequest" xlink:href="UserService.html" xlink:show="new" xlink:title="UserService.html" xlink:type="simple"><g id="elem_domain.service.UserService"><rect codeLine="58" fill="#F1F1F1" height="197.7754" id="domain.service.UserService" rx="2.5" ry="2.5" style="stroke:#181818;stroke-width:0.5;" width="344" x="22" y="424.1"/><ellipse cx="154.75" cy="440.1" fill="#ADD1B2" rx="11" ry="11" style="stroke:#181818;stroke-width:1.0;"/><path d="M157.9375,445.7406 Q156.4219,446.5531 154.3906,446.5531 Q151.7344,446.5531 150.125,444.8344 Q148.5313,443.1156 148.5313,440.35 Q148.5313,437.3969 150.3281,435.5531 Q152.125,433.7094 154.875,433.7094 Q156.625,433.7094 157.9375,434.3031 L157.9375,436.4125 Q156.3438,435.5062 154.8594,435.5062 Q152.9219,435.5062 151.7188,436.8031 Q150.5156,438.0844 150.5156,440.2719 Q150.5156,442.3344 151.625,443.5531 Q152.75,444.7719 154.5781,444.7719 Q156.2813,444.7719 157.9375,443.7719 L157.9375,445.7406 Z " fill="#000000"/><text fill="#000000" font-family="sans-serif" font-size="14" lengthAdjust="spacing" textLength="70" x="175.25" y="444.6425">UserService</text><line style="stroke:#181818;stroke-width:0.5;" x1="23" x2="365" y1="456.1" y2="456.1"/><line style="stroke:#181818;stroke-width:0.5;" x1="23" x2="365" y1="464.1" y2="464.1"/><ellipse cx="33" cy="477.0888" fill="#84BE84" rx="3" ry="3" style="stroke:#038048;stroke-width:1.0;"/><text fill="#000000" font-family="sans-serif" font-size="14" lengthAdjust="spacing" textLength="171" x="42" y="480.1312">UserService(UserRepository)</text><ellipse cx="33" cy="492.0663" fill="#84BE84" rx="3" ry="3" style="stroke:#038048;stroke-width:1.0;"/><text fill="#000000" font-family="sans-serif" font-size="14" lengthAdjust="spacing" textLength="237" x="42" y="495.1088">registerUser(String, String, String): void</text><ellipse cx="33" cy="507.0438" fill="#84BE84" rx="3" ry="3" style="stroke:#038048;stroke-width:1.0;"/><text fill="#000000" font-family="sans-serif" font-size="14" lengthAdjust="spacing" textLength="221" x="42" y="510.0863">verifyCredentials(String, String): void</text><ellipse cx="33" cy="522.0214" fill="#84BE84" rx="3" ry="3" style="stroke:#038048;stroke-width:1.0;"/><text fill="#000000" font-family="sans-serif" font-size="14" lengthAdjust="spacing" textLength="256" x="42" y="525.0639">addResponseId(String, String, String): void</text><ellipse cx="33" cy="536.9989" fill="#84BE84" rx="3" ry="3" style="stroke:#038048;stroke-width:1.0;"/><text fill="#000000" font-family="sans-serif" font-size="14" lengthAdjust="spacing" textLength="178" x="42" y="540.0414">loginUser(String, String): void</text><ellipse cx="33" cy="551.9765" fill="#84BE84" rx="3" ry="3" style="stroke:#038048;stroke-width:1.0;"/><text fill="#000000" font-family="sans-serif" font-size="14" lengthAdjust="spacing" textLength="155" x="42" y="555.0189">logoutUser(String): String</text><ellipse cx="33" cy="566.954" fill="#84BE84" rx="3" ry="3" style="stroke:#038048;stroke-width:1.0;"/><text fill="#000000" font-family="sans-serif" font-size="14" lengthAdjust="spacing" textLength="165" x="42" y="569.9965">deleteUser(String): boolean</text><ellipse cx="33" cy="581.9315" fill="#84BE84" rx="3" ry="3" style="stroke:#038048;stroke-width:1.0;"/><text fill="#000000" font-family="sans-serif" font-size="14" lengthAdjust="spacing" textLength="276" x="42" y="584.974">updateUserEmail(String, String, String): String</text><ellipse cx="33" cy="596.9091" fill="#84BE84" rx="3" ry="3" style="stroke:#038048;stroke-width:1.0;"/><text fill="#000000" font-family="sans-serif" font-size="14" lengthAdjust="spacing" textLength="318" x="42" y="599.9516">changePassword(String, String, String, String): String</text><ellipse cx="33" cy="611.8866" fill="#84BE84" rx="3" ry="3" style="stroke:#038048;stroke-width:1.0;"/><text fill="#000000" font-family="sans-serif" font-size="14" lengthAdjust="spacing" textLength="127" x="42" y="614.9291">getUser(String): User</text></g></a><!--link domain.service.ResponseService to domain.service.SurveyService--><g id="link_domain.service.ResponseService_domain.service.SurveyService"><path codeLine="71" d="M1302,296.83 C1302,318.94 1302,342.14 1302,364.91 " fill="none" id="domain.service.ResponseService-to-domain.service.SurveyService" style="stroke:#181818;stroke-width:1.0;"/><polygon fill="#181818" points="1302,369.8,1306,360.8,1302,364.8,1298,360.8,1302,369.8" style="stroke:#181818;stroke-width:1.0;"/><text fill="#000000" font-family="sans-serif" font-size="13" lengthAdjust="spacing" textLength="78" x="1303" y="338.8519">surveyService</text></g><text fill="#888888" font-family="sans-serif" font-size="10" lengthAdjust="spacing" textLength="161" x="686" y="704.8938">UMLDoclet 2.1.0, PlantUML 1.2022.14</text><!--SRC=[lLTDJnin4BtpAtofvAWXQdj4LIGKE5GYbFBH2-9WTeV4gcC7snj8g_xtpgxZtRLZXq2hva0owpSV7hytNWWXHB85c2KhW9HgmRWS6T0hZkQlWmEo-HI26KEEfNa2VRLPlhqDxD7SBiJT7NgHtkTzWA7EkeIbCjmglHwI6ymsKT9g9GJeGUlyEqx-hG9ZkP9T-kX9fe08HRszJn5DW483it0DpxPYmdjJBksGN5dDvQpxlbTA09E3exRQLAZpQW6Q5_ycsBGIbYy5JEOATxTNn25fLfi_PzpOpsvzZ9dIqSAyrRB4l7wjxalRKvyA8wqKBqC_gsOp0PVmM74DvPLbjZAjPzA3bUNNPRETT5qxqxaoN_3ljIaPHCD2hVO8igE2AKVg2IXgh7bh3FRyjXXRAhf4gMCCw5GKFSceA49HR-TLX7sjz0hM6uz8L3Emhgl6RGnAwbdQaTDjQCFQsxk8_dCeVjGfpv1NK799amriOBxQqsUakw6XBf9kMDzt9dZfFR-KTNZd42ADPTfw66r3fg0Or9-MwP2D1FtpSTQZtv_iJ81cWtxDJLjiRPF2MUEkerkf72BHdxv_OlTkXSRZPbUXZjTvnywuNYzXvvHuETI9gku599svn36w0DcUu4HLqj8qCxRK530SjHJO6IK56Egi_U-YLv3UXGuedw6w18qTl97yiGBdbQUxktKSQbDzZMn-nAtbbgE6Vi8vF7c7w7WwkIG2DBlmHnz9DpSlaSL-eBYGXdh-EdjRO1kSstB_Fjn2uiMTq2-MyhzbtbPDTpOGOTFrNcq8vqPKGt9SE8-uYYJqxpHMixrJMC_AwAk7eFNlJbk3-6wVuHP0rw0yCRSfjiANjuVr1ESgRWa9ljTzWgyolQla5Tc4cd6PA347LfNjeJCYBb4YAFW0bpmwDrjhu2d-Qo1sw3SrAkPCpk023_59wTocNuY150xBhAqKMU8NcyF3SJYUZuZfcmSz_m8F4ZHvKAh-kfcUdQW26qG-ZJwEFWp9XM3IubFo3e_UrFeO_040]--></g></svg>