<?xml version="1.0" encoding="UTF-8" standalone="no"?><svg xmlns="http://www.w3.org/2000/svg" xmlns:xlink="http://www.w3.org/1999/xlink" contentStyleType="text/css" height="286px" preserveAspectRatio="none" style="width:339px;height:286px;background:#FFFFFF;" version="1.1" viewBox="0 0 339 286" width="339px" zoomAndPan="magnify"><defs/><g><!--class domain.model.Response--><a href="Response.html" target="_top" title="Response.html" xlink:actuate="onRequest" xlink:href="Response.html" xlink:show="new" xlink:title="Response.html" xlink:type="simple"><g id="elem_domain.model.Response"><rect codeLine="5" fill="#F1F1F1" height="253.3613" id="domain.model.Response" rx="2.5" ry="2.5" style="stroke:#181818;stroke-width:0.5;" width="318" x="7" y="7"/><ellipse cx="129.75" cy="24.8379" fill="#ADD1B2" rx="11" ry="11" style="stroke:#181818;stroke-width:1.0;"/><path d="M132.9375,30.4785 Q131.4219,31.291 129.3906,31.291 Q126.7344,31.291 125.125,29.5723 Q123.5313,27.8535 123.5313,25.0879 Q123.5313,22.1348 125.3281,20.291 Q127.125,18.4473 129.875,18.4473 Q131.625,18.4473 132.9375,19.041 L132.9375,21.1504 Q131.3438,20.2441 129.8594,20.2441 Q127.9219,20.2441 126.7188,21.541 Q125.5156,22.8223 125.5156,25.0098 Q125.5156,27.0723 126.625,28.291 Q127.75,29.5098 129.5781,29.5098 Q131.2813,29.5098 132.9375,28.5098 L132.9375,30.4785 Z " fill="#000000"/><text fill="#000000" font-family="sans-serif" font-size="14" lengthAdjust="spacing" textLength="58" x="153.25" y="24.0313">Response</text><text fill="#000000" font-family="sans-serif" font-size="10" lengthAdjust="spacing" textLength="64" x="150.25" y="35.5713">domain.model</text><line style="stroke:#181818;stroke-width:0.5;" x1="8" x2="324" y1="42.6758" y2="42.6758"/><ellipse cx="18" cy="55.6646" fill="#84BE84" rx="3" ry="3" style="stroke:#038048;stroke-width:1.0;"/><text fill="#000000" font-family="sans-serif" font-size="14" lengthAdjust="spacing" textLength="292" x="27" y="58.707">Response(String, String, String, List&lt;Question&gt;)</text><ellipse cx="18" cy="70.6421" fill="#84BE84" rx="3" ry="3" style="stroke:#038048;stroke-width:1.0;"/><text fill="#000000" font-family="sans-serif" font-size="14" lengthAdjust="spacing" textLength="249" x="27" y="73.6846">Response(String, String, List&lt;Question&gt;)</text><ellipse cx="18" cy="85.6196" fill="#84BE84" rx="3" ry="3" style="stroke:#038048;stroke-width:1.0;"/><text fill="#000000" font-family="sans-serif" font-size="14" lengthAdjust="spacing" textLength="156" x="27" y="88.6621">getRESPONSE_ID(): String</text><ellipse cx="18" cy="100.5972" fill="#84BE84" rx="3" ry="3" style="stroke:#038048;stroke-width:1.0;"/><text fill="#000000" font-family="sans-serif" font-size="14" lengthAdjust="spacing" textLength="124" x="27" y="103.6396">getSurveyId(): String</text><ellipse cx="18" cy="115.5747" fill="#84BE84" rx="3" ry="3" style="stroke:#038048;stroke-width:1.0;"/><text fill="#000000" font-family="sans-serif" font-size="14" lengthAdjust="spacing" textLength="198" x="27" y="118.6172">getResponderUsername(): String</text><ellipse cx="18" cy="130.5522" fill="#84BE84" rx="3" ry="3" style="stroke:#038048;stroke-width:1.0;"/><text fill="#000000" font-family="sans-serif" font-size="14" lengthAdjust="spacing" textLength="227" x="27" y="133.5947">getResponseStatus(): ResponseStatus</text><ellipse cx="18" cy="145.5298" fill="#84BE84" rx="3" ry="3" style="stroke:#038048;stroke-width:1.0;"/><text fill="#000000" font-family="sans-serif" font-size="14" lengthAdjust="spacing" textLength="219" x="27" y="148.5723">getSUBMITTED_AT(): LocalDateTime</text><ellipse cx="18" cy="160.5073" fill="#84BE84" rx="3" ry="3" style="stroke:#038048;stroke-width:1.0;"/><text fill="#000000" font-family="sans-serif" font-size="14" lengthAdjust="spacing" textLength="149" x="27" y="163.5498">getANSWERS(): Answer[]</text><ellipse cx="18" cy="175.4849" fill="#84BE84" rx="3" ry="3" style="stroke:#038048;stroke-width:1.0;"/><text fill="#000000" font-family="sans-serif" font-size="14" lengthAdjust="spacing" textLength="251" x="27" y="178.5273">setResponseStatus(ResponseStatus): void</text><ellipse cx="18" cy="190.4624" fill="#84BE84" rx="3" ry="3" style="stroke:#038048;stroke-width:1.0;"/><text fill="#000000" font-family="sans-serif" font-size="14" lengthAdjust="spacing" textLength="243" x="27" y="193.5049">setSUBMITTED_AT(LocalDateTime): void</text><ellipse cx="18" cy="205.4399" fill="#84BE84" rx="3" ry="3" style="stroke:#038048;stroke-width:1.0;"/><text fill="#000000" font-family="sans-serif" font-size="14" lengthAdjust="spacing" textLength="129" x="27" y="208.4824">inRange(int): boolean</text><ellipse cx="18" cy="220.4175" fill="#84BE84" rx="3" ry="3" style="stroke:#038048;stroke-width:1.0;"/><text fill="#000000" font-family="sans-serif" font-size="14" lengthAdjust="spacing" textLength="197" x="27" y="223.46">updateAnswer(int, Answer): void</text><ellipse cx="18" cy="235.395" fill="#84BE84" rx="3" ry="3" style="stroke:#038048;stroke-width:1.0;"/><text fill="#000000" font-family="sans-serif" font-size="14" lengthAdjust="spacing" textLength="130" x="27" y="238.4375">clearAnswer(int): void</text><ellipse cx="18" cy="250.3726" fill="#84BE84" rx="3" ry="3" style="stroke:#038048;stroke-width:1.0;"/><text fill="#000000" font-family="sans-serif" font-size="14" lengthAdjust="spacing" textLength="141" x="27" y="253.415">getAnswer(int): Answer</text></g></a><text fill="#888888" font-family="sans-serif" font-size="10" lengthAdjust="spacing" textLength="161" x="85" y="275.9551">UMLDoclet 2.1.0, PlantUML 1.2022.14</text><!--SRC=[ZP9VQy8m5CNVzoakmg0oAJhs928usWT1dMigUt0YMNFLG9kK97MuiU- -n3zeB8xr9SqvltDFMW80eD60e0NgacP8iAIA6gb0I85treODPmXOb6O7AuuvqzTgWMOZhRpNivng3OsUvb_OxJpr4pjN2etluYYr-qmMb8kma0pp1b0Dbq9u2i1yVdeDDwR85mlutZUuv-5a1SGeBjOjk5v7N9lUQuNQS2dwpNyaRoRMQ9AOJ5yc95uEew3PFKOyWbHgYxiXks4VMXcgcKRb_lQVd4PYgAcqWtp5xvmzZuTf6aVBGUhGaSne7b63AI_G8mSJyXOdn443eJzHpHTdNzTg_QqDRILdNi2hzdfhD1S95MiCk33M-v0oHohETbKocpoSoZ6jumbhSpARKsUkvhlFl7GFcxt_SxoRA0mgM4dfbjbu54axrC1Zs0dRBPZcL1YhmlqMbRQN86Z-0W00]--></g></svg>