<?xml version="1.0" encoding="UTF-8" standalone="no"?><svg xmlns="http://www.w3.org/2000/svg" xmlns:xlink="http://www.w3.org/1999/xlink" contentStyleType="text/css" height="646px" preserveAspectRatio="none" style="width:281px;height:646px;background:#FFFFFF;" version="1.1" viewBox="0 0 281 646" width="281px" zoomAndPan="magnify"><defs/><g><!--class domain.model.Survey--><a href="Survey.html" target="_top" title="Survey.html" xlink:actuate="onRequest" xlink:href="Survey.html" xlink:show="new" xlink:title="Survey.html" xlink:type="simple"><g id="elem_domain.model.Survey"><rect codeLine="5" fill="#F1F1F1" height="611.6875" id="domain.model.Survey" rx="2.5" ry="2.5" style="stroke:#181818;stroke-width:0.5;" width="260" x="7" y="7"/><ellipse cx="98.25" cy="27.0938" fill="#ADD1B2" rx="11" ry="11" style="stroke:#181818;stroke-width:1.0;"/><path d="M101.0156,22.9688 Q101.1719,22.75 101.3594,22.6406 Q101.5469,22.5313 101.7656,22.5313 Q102.1406,22.5313 102.375,22.7969 Q102.6094,23.0469 102.6094,23.6563 L102.6094,25.1094 Q102.6094,25.7188 102.375,25.9844 Q102.1406,26.25 101.7656,26.25 Q101.4219,26.25 101.2188,26.0469 Q101.0156,25.8594 100.9063,25.3438 Q100.8594,24.9844 100.6719,24.7969 Q100.3438,24.4219 99.7344,24.2031 Q99.125,23.9844 98.5,23.9844 Q97.7344,23.9844 97.0938,24.3125 Q96.4688,24.6406 95.9688,25.3906 Q95.4844,26.1406 95.4844,27.1719 L95.4844,28.2656 Q95.4844,29.5 96.375,30.3281 Q97.2656,31.1406 98.8594,31.1406 Q99.7969,31.1406 100.4531,30.8906 Q100.8438,30.7344 101.2656,30.2969 Q101.5313,30.0313 101.6719,29.9531 Q101.8281,29.875 102.0313,29.875 Q102.3594,29.875 102.6094,30.1406 Q102.875,30.3906 102.875,30.7344 Q102.875,31.0781 102.5313,31.4844 Q102.0313,32.0625 101.2344,32.3906 Q100.1563,32.8438 98.8594,32.8438 Q97.3438,32.8438 96.1406,32.2188 Q95.1563,31.7188 94.4688,30.6563 Q93.7813,29.5781 93.7813,28.2969 L93.7813,27.1406 Q93.7813,25.8125 94.3906,24.6719 Q95.0156,23.5156 96.1094,22.9063 Q97.2031,22.2813 98.4375,22.2813 Q99.1719,22.2813 99.8125,22.4531 Q100.4688,22.6094 101.0156,22.9688 Z " fill="#000000"/><text fill="#000000" font-family="sans-serif" font-size="14" lengthAdjust="spacing" textLength="44" x="131.25" y="26.5332">Survey</text><text fill="#000000" font-family="sans-serif" font-size="10" lengthAdjust="spacing" textLength="69" x="118.75" y="39.9902">domain.model</text><line style="stroke:#181818;stroke-width:0.5;" x1="8" x2="266" y1="47.1875" y2="47.1875"/><ellipse cx="18" cy="61.4922" fill="#84BE84" rx="3" ry="3" style="stroke:#038048;stroke-width:1.0;"/><text fill="#000000" font-family="sans-serif" font-size="14" lengthAdjust="spacing" textLength="226" x="27" y="65.7207">Survey(String, String, String, String)</text><ellipse cx="18" cy="79.1016" fill="#84BE84" rx="3" ry="3" style="stroke:#038048;stroke-width:1.0;"/><text fill="#000000" font-family="sans-serif" font-size="14" lengthAdjust="spacing" textLength="181" x="27" y="83.3301">Survey(String, String, String)</text><ellipse cx="18" cy="96.7109" fill="#84BE84" rx="3" ry="3" style="stroke:#038048;stroke-width:1.0;"/><text fill="#000000" font-family="sans-serif" font-size="14" lengthAdjust="spacing" textLength="151" x="27" y="100.9395">getSURVEY_ID(): String</text><ellipse cx="18" cy="114.3203" fill="#84BE84" rx="3" ry="3" style="stroke:#038048;stroke-width:1.0;"/><text fill="#000000" font-family="sans-serif" font-size="14" lengthAdjust="spacing" textLength="102" x="27" y="118.5488">getTitle(): String</text><ellipse cx="18" cy="131.9297" fill="#84BE84" rx="3" ry="3" style="stroke:#038048;stroke-width:1.0;"/><text fill="#000000" font-family="sans-serif" font-size="14" lengthAdjust="spacing" textLength="146" x="27" y="136.1582">getDescription(): String</text><ellipse cx="18" cy="149.5391" fill="#84BE84" rx="3" ry="3" style="stroke:#038048;stroke-width:1.0;"/><text fill="#000000" font-family="sans-serif" font-size="14" lengthAdjust="spacing" textLength="226" x="27" y="153.7676">getCREATOR_USERNAME(): String</text><ellipse cx="18" cy="167.1484" fill="#84BE84" rx="3" ry="3" style="stroke:#038048;stroke-width:1.0;"/><text fill="#000000" font-family="sans-serif" font-size="14" lengthAdjust="spacing" textLength="225" x="27" y="171.377">getCREATED_AT(): LocalDateTime</text><ellipse cx="18" cy="184.7578" fill="#84BE84" rx="3" ry="3" style="stroke:#038048;stroke-width:1.0;"/><text fill="#000000" font-family="sans-serif" font-size="14" lengthAdjust="spacing" textLength="234" x="27" y="188.9863">getPUBLISHED_AT(): LocalDateTime</text><ellipse cx="18" cy="202.3672" fill="#84BE84" rx="3" ry="3" style="stroke:#038048;stroke-width:1.0;"/><text fill="#000000" font-family="sans-serif" font-size="14" lengthAdjust="spacing" textLength="206" x="27" y="206.5957">getSurveyStatus(): SurveyStatus</text><ellipse cx="18" cy="219.9766" fill="#84BE84" rx="3" ry="3" style="stroke:#038048;stroke-width:1.0;"/><text fill="#000000" font-family="sans-serif" font-size="14" lengthAdjust="spacing" textLength="146" x="27" y="224.2051">getAvgRating(): double</text><ellipse cx="18" cy="237.5859" fill="#84BE84" rx="3" ry="3" style="stroke:#038048;stroke-width:1.0;"/><text fill="#000000" font-family="sans-serif" font-size="14" lengthAdjust="spacing" textLength="154" x="27" y="241.8145">getTotalRating(): double</text><ellipse cx="18" cy="255.1953" fill="#84BE84" rx="3" ry="3" style="stroke:#038048;stroke-width:1.0;"/><text fill="#000000" font-family="sans-serif" font-size="14" lengthAdjust="spacing" textLength="132" x="27" y="259.4238">getRatingCount(): int</text><ellipse cx="18" cy="272.8047" fill="#84BE84" rx="3" ry="3" style="stroke:#038048;stroke-width:1.0;"/><text fill="#000000" font-family="sans-serif" font-size="14" lengthAdjust="spacing" textLength="175" x="27" y="277.0332">getAverageRating(): double</text><ellipse cx="18" cy="290.4141" fill="#84BE84" rx="3" ry="3" style="stroke:#038048;stroke-width:1.0;"/><text fill="#000000" font-family="sans-serif" font-size="14" lengthAdjust="spacing" textLength="152" x="27" y="294.6426">addRating(double): void</text><ellipse cx="18" cy="308.0234" fill="#84BE84" rx="3" ry="3" style="stroke:#038048;stroke-width:1.0;"/><text fill="#000000" font-family="sans-serif" font-size="14" lengthAdjust="spacing" textLength="176" x="27" y="312.252">recomputeAvgRating(): void</text><ellipse cx="18" cy="325.6328" fill="#84BE84" rx="3" ry="3" style="stroke:#038048;stroke-width:1.0;"/><text fill="#000000" font-family="sans-serif" font-size="14" lengthAdjust="spacing" textLength="89" x="27" y="329.8613">getViews(): int</text><ellipse cx="18" cy="343.2422" fill="#84BE84" rx="3" ry="3" style="stroke:#038048;stroke-width:1.0;"/><text fill="#000000" font-family="sans-serif" font-size="14" lengthAdjust="spacing" textLength="197" x="27" y="347.4707">getQuestions(): List&lt;Question&gt;</text><ellipse cx="18" cy="360.8516" fill="#84BE84" rx="3" ry="3" style="stroke:#038048;stroke-width:1.0;"/><text fill="#000000" font-family="sans-serif" font-size="14" lengthAdjust="spacing" textLength="127" x="27" y="365.0801">setTitle(String): void</text><ellipse cx="18" cy="378.4609" fill="#84BE84" rx="3" ry="3" style="stroke:#038048;stroke-width:1.0;"/><text fill="#000000" font-family="sans-serif" font-size="14" lengthAdjust="spacing" textLength="171" x="27" y="382.6895">setDescription(String): void</text><ellipse cx="18" cy="396.0703" fill="#84BE84" rx="3" ry="3" style="stroke:#038048;stroke-width:1.0;"/><text fill="#000000" font-family="sans-serif" font-size="14" lengthAdjust="spacing" textLength="164" x="27" y="400.2988">setPUBLISHED_AT(): void</text><ellipse cx="18" cy="413.6797" fill="#84BE84" rx="3" ry="3" style="stroke:#038048;stroke-width:1.0;"/><text fill="#000000" font-family="sans-serif" font-size="14" lengthAdjust="spacing" textLength="231" x="27" y="417.9082">setSurveyStatus(SurveyStatus): void</text><ellipse cx="18" cy="431.2891" fill="#84BE84" rx="3" ry="3" style="stroke:#038048;stroke-width:1.0;"/><text fill="#000000" font-family="sans-serif" font-size="14" lengthAdjust="spacing" textLength="171" x="27" y="435.5176">setAvgRating(double): void</text><ellipse cx="18" cy="448.8984" fill="#84BE84" rx="3" ry="3" style="stroke:#038048;stroke-width:1.0;"/><text fill="#000000" font-family="sans-serif" font-size="14" lengthAdjust="spacing" textLength="114" x="27" y="453.127">setViews(int): void</text><ellipse cx="18" cy="466.5078" fill="#84BE84" rx="3" ry="3" style="stroke:#038048;stroke-width:1.0;"/><text fill="#000000" font-family="sans-serif" font-size="14" lengthAdjust="spacing" textLength="179" x="27" y="470.7363">setTotalRating(double): void</text><ellipse cx="18" cy="484.1172" fill="#84BE84" rx="3" ry="3" style="stroke:#038048;stroke-width:1.0;"/><text fill="#000000" font-family="sans-serif" font-size="14" lengthAdjust="spacing" textLength="157" x="27" y="488.3457">setRatingCount(int): void</text><ellipse cx="18" cy="501.7266" fill="#84BE84" rx="3" ry="3" style="stroke:#038048;stroke-width:1.0;"/><text fill="#000000" font-family="sans-serif" font-size="14" lengthAdjust="spacing" textLength="79" x="27" y="505.9551">getSize(): int</text><ellipse cx="18" cy="519.3359" fill="#84BE84" rx="3" ry="3" style="stroke:#038048;stroke-width:1.0;"/><text fill="#000000" font-family="sans-serif" font-size="14" lengthAdjust="spacing" textLength="182" x="27" y="523.5645">addQuestion(Question): void</text><ellipse cx="18" cy="536.9453" fill="#84BE84" rx="3" ry="3" style="stroke:#038048;stroke-width:1.0;"/><text fill="#000000" font-family="sans-serif" font-size="14" lengthAdjust="spacing" textLength="163" x="27" y="541.1738">removeQuestion(int): void</text><ellipse cx="18" cy="554.5547" fill="#84BE84" rx="3" ry="3" style="stroke:#038048;stroke-width:1.0;"/><text fill="#000000" font-family="sans-serif" font-size="14" lengthAdjust="spacing" textLength="186" x="27" y="558.7832">reorderQuestion(int, int): void</text><ellipse cx="18" cy="572.1641" fill="#84BE84" rx="3" ry="3" style="stroke:#038048;stroke-width:1.0;"/><text fill="#000000" font-family="sans-serif" font-size="14" lengthAdjust="spacing" textLength="225" x="27" y="576.3926">updateQuestion(int, Question): void</text><ellipse cx="18" cy="589.7734" fill="#84BE84" rx="3" ry="3" style="stroke:#038048;stroke-width:1.0;"/><text fill="#000000" font-family="sans-serif" font-size="14" lengthAdjust="spacing" textLength="167" x="27" y="594.002">getQuestion(int): Question</text><ellipse cx="18" cy="607.3828" fill="#84BE84" rx="3" ry="3" style="stroke:#038048;stroke-width:1.0;"/><text fill="#000000" font-family="sans-serif" font-size="14" lengthAdjust="spacing" textLength="139" x="27" y="611.6113">clearQuestions(): void</text></g></a><text fill="#888888" font-family="sans-serif" font-size="10" lengthAdjust="spacing" textLength="184" x="44.5" y="636.0684">UMLDoclet 2.1.0, PlantUML 1.2022.14</text><!--SRC=[ZPHjQzim4CVVxrCSXK7AWcd7NfKIo6h32kdMsKvXT2LerZKHwC58vunkxBjFVcgir2xr6rdt__bEqlyi002719efT2KhCCEIMKR6WZOQttaPTe8Ze2hf2Hu5IkwEemffPtouYHUIEGSdbqxymOlpJukiidjy-gcxmDc26yM4ZfJXA4-0EHW6eXQ7-_ls9TgHaWyFyBV9NJyVMc6MaHLwEuVnyVID_83R8cNhz2xviRcEPwSN7H3ekI294rgChh2Y967q176L9ilyMxfPPqdwTNcJl8ObyMQPry3A54p6Z30N2WFkTlrvTPrzUGFPda16Z2hN51tC0t2vtwQC_89gYflgbmmJvOQOV9LenIjJQQe9eUce05gsnUaKZFDER1MFx8tW1y1YOLHP4GPh3HbVw4xWRpUsWkyLkjgZHbm9HvTzP77WN6zrroJ71LnezpHrxD4B8B1cE1c33rkUE1pNRzplUamS-ZUTOkZXMAAwe_o__E9qlNVzMSxwbn7_bDdZCpUMtwAn7EsGcSCOM9NSjtl8JHOUUDzLxQS7ff38RD0Xppd-TRSRQa8BZyRKm_fc5Hl_4S77w3mwcyEjP9fy5DxxHdVDLV0V]--></g></svg>