<?xml version="1.0" encoding="UTF-8" standalone="no"?><svg xmlns="http://www.w3.org/2000/svg" xmlns:xlink="http://www.w3.org/1999/xlink" contentStyleType="text/css" height="962px" preserveAspectRatio="none" style="width:788px;height:962px;background:#FFFFFF;" version="1.1" viewBox="0 0 788 962" width="788px" zoomAndPan="magnify"><defs/><g><!--cluster data--><g id="cluster_data"><path d="M8.5,6 L39.5,6 A3.75,3.75 0 0 1 42,8.5 L49,29.6094 L778.5,29.6094 A2.5,2.5 0 0 1 781,32.1094 L781,933.5 A2.5,2.5 0 0 1 778.5,936 L8.5,936 A2.5,2.5 0 0 1 6,933.5 L6,8.5 A2.5,2.5 0 0 1 8.5,6 " fill="none" style="stroke:#000000;stroke-width:1.5;"/><line style="stroke:#000000;stroke-width:1.5;" x1="6" x2="49" y1="29.6094" y2="29.6094"/><text fill="#000000" font-family="sans-serif" font-size="14" font-weight="bold" lengthAdjust="spacing" textLength="30" x="10" y="22.5332">data</text></g><!--class data.IdCounterRepository--><a href="IdCounterRepository.html" target="_top" title="IdCounterRepository.html" xlink:actuate="onRequest" xlink:href="IdCounterRepository.html" xlink:show="new" xlink:title="IdCounterRepository.html" xlink:type="simple"><g id="elem_data.IdCounterRepository"><rect codeLine="3" fill="#F1F1F1" height="100.8281" id="data.IdCounterRepository" rx="2.5" ry="2.5" style="stroke:#181818;stroke-width:0.5;" width="226" x="66" y="183"/><ellipse cx="109.8" cy="199" fill="#ADD1B2" rx="11" ry="11" style="stroke:#181818;stroke-width:1.0;"/><path d="M112.5656,194.875 Q112.7219,194.6563 112.9094,194.5469 Q113.0969,194.4375 113.3156,194.4375 Q113.6906,194.4375 113.925,194.7031 Q114.1594,194.9531 114.1594,195.5625 L114.1594,197.0156 Q114.1594,197.625 113.925,197.8906 Q113.6906,198.1563 113.3156,198.1563 Q112.9719,198.1563 112.7688,197.9531 Q112.5656,197.7656 112.4563,197.25 Q112.4094,196.8906 112.2219,196.7031 Q111.8938,196.3281 111.2844,196.1094 Q110.675,195.8906 110.05,195.8906 Q109.2844,195.8906 108.6438,196.2188 Q108.0188,196.5469 107.5188,197.2969 Q107.0344,198.0469 107.0344,199.0781 L107.0344,200.1719 Q107.0344,201.4063 107.925,202.2344 Q108.8156,203.0469 110.4094,203.0469 Q111.3469,203.0469 112.0031,202.7969 Q112.3938,202.6406 112.8156,202.2031 Q113.0813,201.9375 113.2219,201.8594 Q113.3781,201.7813 113.5813,201.7813 Q113.9094,201.7813 114.1594,202.0469 Q114.425,202.2969 114.425,202.6406 Q114.425,202.9844 114.0813,203.3906 Q113.5813,203.9688 112.7844,204.2969 Q111.7063,204.75 110.4094,204.75 Q108.8938,204.75 107.6906,204.125 Q106.7063,203.625 106.0188,202.5625 Q105.3313,201.4844 105.3313,200.2031 L105.3313,199.0469 Q105.3313,197.7188 105.9406,196.5781 Q106.5656,195.4219 107.6594,194.8125 Q108.7531,194.1875 109.9875,194.1875 Q110.7219,194.1875 111.3625,194.3594 Q112.0188,194.5156 112.5656,194.875 Z " fill="#000000"/><text fill="#000000" font-family="sans-serif" font-size="14" lengthAdjust="spacing" textLength="130" x="130.2" y="204.7285">IdCounterRepository</text><line style="stroke:#181818;stroke-width:0.5;" x1="67" x2="291" y1="215" y2="215"/><line style="stroke:#181818;stroke-width:0.5;" x1="67" x2="291" y1="223" y2="223"/><ellipse cx="77" cy="237.3047" fill="#84BE84" rx="3" ry="3" style="stroke:#038048;stroke-width:1.0;"/><text fill="#000000" font-family="sans-serif" font-size="14" lengthAdjust="spacing" textLength="155" x="86" y="241.5332">IdCounterRepository(int)</text><ellipse cx="77" cy="254.9141" fill="#84BE84" rx="3" ry="3" style="stroke:#038048;stroke-width:1.0;"/><text fill="#000000" font-family="sans-serif" font-size="14" lengthAdjust="spacing" textLength="85" x="86" y="259.1426">saveId(): void</text><ellipse cx="77" cy="272.5234" fill="#84BE84" rx="3" ry="3" style="stroke:#038048;stroke-width:1.0;"/><text fill="#000000" font-family="sans-serif" font-size="14" lengthAdjust="spacing" textLength="200" x="86" y="276.752">getNextIdAndIncrement(): String</text></g></a><!--class data.ResponseRepository--><a href="ResponseRepository.html" target="_top" title="ResponseRepository.html" xlink:actuate="onRequest" xlink:href="ResponseRepository.html" xlink:show="new" xlink:title="ResponseRepository.html" xlink:type="simple"><g id="elem_data.ResponseRepository"><rect codeLine="9" fill="#F1F1F1" height="382.5781" id="data.ResponseRepository" rx="2.5" ry="2.5" style="stroke:#181818;stroke-width:0.5;" width="345" x="327.5" y="42"/><ellipse cx="429.75" cy="58" fill="#ADD1B2" rx="11" ry="11" style="stroke:#181818;stroke-width:1.0;"/><path d="M432.5156,53.875 Q432.6719,53.6563 432.8594,53.5469 Q433.0469,53.4375 433.2656,53.4375 Q433.6406,53.4375 433.875,53.7031 Q434.1094,53.9531 434.1094,54.5625 L434.1094,56.0156 Q434.1094,56.625 433.875,56.8906 Q433.6406,57.1563 433.2656,57.1563 Q432.9219,57.1563 432.7188,56.9531 Q432.5156,56.7656 432.4063,56.25 Q432.3594,55.8906 432.1719,55.7031 Q431.8438,55.3281 431.2344,55.1094 Q430.625,54.8906 430,54.8906 Q429.2344,54.8906 428.5938,55.2188 Q427.9688,55.5469 427.4688,56.2969 Q426.9844,57.0469 426.9844,58.0781 L426.9844,59.1719 Q426.9844,60.4063 427.875,61.2344 Q428.7656,62.0469 430.3594,62.0469 Q431.2969,62.0469 431.9531,61.7969 Q432.3438,61.6406 432.7656,61.2031 Q433.0313,60.9375 433.1719,60.8594 Q433.3281,60.7813 433.5313,60.7813 Q433.8594,60.7813 434.1094,61.0469 Q434.375,61.2969 434.375,61.6406 Q434.375,61.9844 434.0313,62.3906 Q433.5313,62.9688 432.7344,63.2969 Q431.6563,63.75 430.3594,63.75 Q428.8438,63.75 427.6406,63.125 Q426.6563,62.625 425.9688,61.5625 Q425.2813,60.4844 425.2813,59.2031 L425.2813,58.0469 Q425.2813,56.7188 425.8906,55.5781 Q426.5156,54.4219 427.6094,53.8125 Q428.7031,53.1875 429.9375,53.1875 Q430.6719,53.1875 431.3125,53.3594 Q431.9688,53.5156 432.5156,53.875 Z " fill="#000000"/><text fill="#000000" font-family="sans-serif" font-size="14" lengthAdjust="spacing" textLength="132" x="450.25" y="63.7285">ResponseRepository</text><line style="stroke:#181818;stroke-width:0.5;" x1="328.5" x2="671.5" y1="74" y2="74"/><line style="stroke:#181818;stroke-width:0.5;" x1="328.5" x2="671.5" y1="82" y2="82"/><ellipse cx="338.5" cy="96.3047" fill="#84BE84" rx="3" ry="3" style="stroke:#038048;stroke-width:1.0;"/><text fill="#000000" font-family="sans-serif" font-size="14" lengthAdjust="spacing" textLength="142" x="347.5" y="100.5332">ResponseRepository()</text><ellipse cx="338.5" cy="113.9141" fill="#84BE84" rx="3" ry="3" style="stroke:#038048;stroke-width:1.0;"/><text fill="#000000" font-family="sans-serif" font-size="14" lengthAdjust="spacing" textLength="179" x="347.5" y="118.1426">ResponseRepository(String)</text><ellipse cx="338.5" cy="131.5234" fill="#84BE84" rx="3" ry="3" style="stroke:#038048;stroke-width:1.0;"/><text fill="#000000" font-family="sans-serif" font-size="14" lengthAdjust="spacing" textLength="75" x="347.5" y="135.752">clear(): void</text><ellipse cx="338.5" cy="149.1328" fill="#84BE84" rx="3" ry="3" style="stroke:#038048;stroke-width:1.0;"/><text fill="#000000" font-family="sans-serif" font-size="14" lengthAdjust="spacing" textLength="181" x="347.5" y="153.3613">getValidResponseId(): String</text><ellipse cx="338.5" cy="166.7422" fill="#84BE84" rx="3" ry="3" style="stroke:#038048;stroke-width:1.0;"/><text fill="#000000" font-family="sans-serif" font-size="14" lengthAdjust="spacing" textLength="182" x="347.5" y="170.9707">addSurveyEntry(String): void</text><ellipse cx="338.5" cy="184.3516" fill="#84BE84" rx="3" ry="3" style="stroke:#038048;stroke-width:1.0;"/><text fill="#000000" font-family="sans-serif" font-size="14" lengthAdjust="spacing" textLength="197" x="347.5" y="188.5801">deleteSurveyEntry(String): void</text><ellipse cx="338.5" cy="201.9609" fill="#84BE84" rx="3" ry="3" style="stroke:#038048;stroke-width:1.0;"/><text fill="#000000" font-family="sans-serif" font-size="14" lengthAdjust="spacing" textLength="218" x="347.5" y="206.1895">existsSurveyEntry(String): boolean</text><ellipse cx="338.5" cy="219.5703" fill="#84BE84" rx="3" ry="3" style="stroke:#038048;stroke-width:1.0;"/><text fill="#000000" font-family="sans-serif" font-size="14" lengthAdjust="spacing" textLength="241" x="347.5" y="223.7988">addResponse(String, Response): void</text><ellipse cx="338.5" cy="237.1797" fill="#84BE84" rx="3" ry="3" style="stroke:#038048;stroke-width:1.0;"/><text fill="#000000" font-family="sans-serif" font-size="14" lengthAdjust="spacing" textLength="248" x="347.5" y="241.4082">getResponse(String, String): Response</text><ellipse cx="338.5" cy="254.7891" fill="#84BE84" rx="3" ry="3" style="stroke:#038048;stroke-width:1.0;"/><text fill="#000000" font-family="sans-serif" font-size="14" lengthAdjust="spacing" textLength="263" x="347.5" y="259.0176">getAllResponses(String): List&lt;Response&gt;</text><ellipse cx="338.5" cy="272.3984" fill="#84BE84" rx="3" ry="3" style="stroke:#038048;stroke-width:1.0;"/><text fill="#000000" font-family="sans-serif" font-size="14" lengthAdjust="spacing" textLength="229" x="347.5" y="276.627">deleteResponse(String, String): void</text><ellipse cx="338.5" cy="290.0078" fill="#84BE84" rx="3" ry="3" style="stroke:#038048;stroke-width:1.0;"/><text fill="#000000" font-family="sans-serif" font-size="14" lengthAdjust="spacing" textLength="261" x="347.5" y="294.2363">updateResponse(String, Response): void</text><ellipse cx="338.5" cy="307.6172" fill="#84BE84" rx="3" ry="3" style="stroke:#038048;stroke-width:1.0;"/><text fill="#000000" font-family="sans-serif" font-size="14" lengthAdjust="spacing" textLength="250" x="347.5" y="311.8457">existsResponse(String, String): boolean</text><ellipse cx="338.5" cy="325.2266" fill="#84BE84" rx="3" ry="3" style="stroke:#038048;stroke-width:1.0;"/><text fill="#000000" font-family="sans-serif" font-size="14" lengthAdjust="spacing" textLength="319" x="347.5" y="329.4551">getResponsesBySurveyId(String): List&lt;Response&gt;</text><ellipse cx="338.5" cy="342.8359" fill="#84BE84" rx="3" ry="3" style="stroke:#038048;stroke-width:1.0;"/><text fill="#000000" font-family="sans-serif" font-size="14" lengthAdjust="spacing" textLength="293" x="347.5" y="347.0645">updateAnswer(String, String, int, Answer): void</text><ellipse cx="338.5" cy="360.4453" fill="#84BE84" rx="3" ry="3" style="stroke:#038048;stroke-width:1.0;"/><text fill="#000000" font-family="sans-serif" font-size="14" lengthAdjust="spacing" textLength="235" x="347.5" y="364.6738">getAnswer(String, String, int): Answer</text><ellipse cx="338.5" cy="378.0547" fill="#84BE84" rx="3" ry="3" style="stroke:#038048;stroke-width:1.0;"/><text fill="#000000" font-family="sans-serif" font-size="14" lengthAdjust="spacing" textLength="272" x="347.5" y="382.2832">getAllAnswers(String, String): List&lt;Answer&gt;</text><ellipse cx="338.5" cy="395.6641" fill="#84BE84" rx="3" ry="3" style="stroke:#038048;stroke-width:1.0;"/><text fill="#000000" font-family="sans-serif" font-size="14" lengthAdjust="spacing" textLength="251" x="347.5" y="399.8926">deleteResponsesBySurvey(String): void</text><ellipse cx="338.5" cy="413.2734" fill="#84BE84" rx="3" ry="3" style="stroke:#038048;stroke-width:1.0;"/><text fill="#000000" font-family="sans-serif" font-size="14" lengthAdjust="spacing" textLength="279" x="347.5" y="417.502">getDraftResponse(String, String): Response</text></g></a><!--class data.SurveyRepository--><a href="SurveyRepository.html" target="_top" title="SurveyRepository.html" xlink:actuate="onRequest" xlink:href="SurveyRepository.html" xlink:show="new" xlink:title="SurveyRepository.html" xlink:type="simple"><g id="elem_data.SurveyRepository"><rect codeLine="31" fill="#F1F1F1" height="435.4063" id="data.SurveyRepository" rx="2.5" ry="2.5" style="stroke:#181818;stroke-width:0.5;" width="314" x="22" y="485"/><ellipse cx="118.75" cy="501" fill="#ADD1B2" rx="11" ry="11" style="stroke:#181818;stroke-width:1.0;"/><path d="M121.5156,496.875 Q121.6719,496.6563 121.8594,496.5469 Q122.0469,496.4375 122.2656,496.4375 Q122.6406,496.4375 122.875,496.7031 Q123.1094,496.9531 123.1094,497.5625 L123.1094,499.0156 Q123.1094,499.625 122.875,499.8906 Q122.6406,500.1563 122.2656,500.1563 Q121.9219,500.1563 121.7188,499.9531 Q121.5156,499.7656 121.4063,499.25 Q121.3594,498.8906 121.1719,498.7031 Q120.8438,498.3281 120.2344,498.1094 Q119.625,497.8906 119,497.8906 Q118.2344,497.8906 117.5938,498.2188 Q116.9688,498.5469 116.4688,499.2969 Q115.9844,500.0469 115.9844,501.0781 L115.9844,502.1719 Q115.9844,503.4063 116.875,504.2344 Q117.7656,505.0469 119.3594,505.0469 Q120.2969,505.0469 120.9531,504.7969 Q121.3438,504.6406 121.7656,504.2031 Q122.0313,503.9375 122.1719,503.8594 Q122.3281,503.7813 122.5313,503.7813 Q122.8594,503.7813 123.1094,504.0469 Q123.375,504.2969 123.375,504.6406 Q123.375,504.9844 123.0313,505.3906 Q122.5313,505.9688 121.7344,506.2969 Q120.6563,506.75 119.3594,506.75 Q117.8438,506.75 116.6406,506.125 Q115.6563,505.625 114.9688,504.5625 Q114.2813,503.4844 114.2813,502.2031 L114.2813,501.0469 Q114.2813,499.7188 114.8906,498.5781 Q115.5156,497.4219 116.6094,496.8125 Q117.7031,496.1875 118.9375,496.1875 Q119.6719,496.1875 120.3125,496.3594 Q120.9688,496.5156 121.5156,496.875 Z " fill="#000000"/><text fill="#000000" font-family="sans-serif" font-size="14" lengthAdjust="spacing" textLength="112" x="139.25" y="506.7285">SurveyRepository</text><line style="stroke:#181818;stroke-width:0.5;" x1="23" x2="335" y1="517" y2="517"/><line style="stroke:#181818;stroke-width:0.5;" x1="23" x2="335" y1="525" y2="525"/><ellipse cx="33" cy="539.3047" fill="#84BE84" rx="3" ry="3" style="stroke:#038048;stroke-width:1.0;"/><text fill="#000000" font-family="sans-serif" font-size="14" lengthAdjust="spacing" textLength="122" x="42" y="543.5332">SurveyRepository()</text><ellipse cx="33" cy="556.9141" fill="#84BE84" rx="3" ry="3" style="stroke:#038048;stroke-width:1.0;"/><text fill="#000000" font-family="sans-serif" font-size="14" lengthAdjust="spacing" textLength="159" x="42" y="561.1426">SurveyRepository(String)</text><ellipse cx="33" cy="574.5234" fill="#84BE84" rx="3" ry="3" style="stroke:#038048;stroke-width:1.0;"/><text fill="#000000" font-family="sans-serif" font-size="14" lengthAdjust="spacing" textLength="75" x="42" y="578.752">clear(): void</text><ellipse cx="33" cy="592.1328" fill="#84BE84" rx="3" ry="3" style="stroke:#038048;stroke-width:1.0;"/><text fill="#000000" font-family="sans-serif" font-size="14" lengthAdjust="spacing" textLength="156" x="42" y="596.3613">addSurvey(Survey): void</text><ellipse cx="33" cy="609.7422" fill="#84BE84" rx="3" ry="3" style="stroke:#038048;stroke-width:1.0;"/><text fill="#000000" font-family="sans-serif" font-size="14" lengthAdjust="spacing" textLength="164" x="42" y="613.9707">deleteSurvey(String): void</text><ellipse cx="33" cy="627.3516" fill="#84BE84" rx="3" ry="3" style="stroke:#038048;stroke-width:1.0;"/><text fill="#000000" font-family="sans-serif" font-size="14" lengthAdjust="spacing" textLength="163" x="42" y="631.5801">getSurvey(String): Survey</text><ellipse cx="33" cy="644.9609" fill="#84BE84" rx="3" ry="3" style="stroke:#038048;stroke-width:1.0;"/><text fill="#000000" font-family="sans-serif" font-size="14" lengthAdjust="spacing" textLength="186" x="42" y="649.1895">getAllSurveys(): List&lt;Survey&gt;</text><ellipse cx="33" cy="662.5703" fill="#84BE84" rx="3" ry="3" style="stroke:#038048;stroke-width:1.0;"/><text fill="#000000" font-family="sans-serif" font-size="14" lengthAdjust="spacing" textLength="190" x="42" y="666.7988">getAllSurveysId(): List&lt;String&gt;</text><ellipse cx="33" cy="680.1797" fill="#84BE84" rx="3" ry="3" style="stroke:#038048;stroke-width:1.0;"/><text fill="#000000" font-family="sans-serif" font-size="14" lengthAdjust="spacing" textLength="221" x="42" y="684.4082">updateSurvey(String, Survey): void</text><ellipse cx="33" cy="697.7891" fill="#84BE84" rx="3" ry="3" style="stroke:#038048;stroke-width:1.0;"/><text fill="#000000" font-family="sans-serif" font-size="14" lengthAdjust="spacing" textLength="185" x="42" y="702.0176">existsSurvey(String): boolean</text><ellipse cx="33" cy="715.3984" fill="#84BE84" rx="3" ry="3" style="stroke:#038048;stroke-width:1.0;"/><text fill="#000000" font-family="sans-serif" font-size="14" lengthAdjust="spacing" textLength="288" x="42" y="719.627">getSurveysByUsername(String): List&lt;Survey&gt;</text><ellipse cx="33" cy="733.0078" fill="#84BE84" rx="3" ry="3" style="stroke:#038048;stroke-width:1.0;"/><text fill="#000000" font-family="sans-serif" font-size="14" lengthAdjust="spacing" textLength="194" x="42" y="737.2363">generateNextSurveyId(): String</text><ellipse cx="33" cy="750.6172" fill="#84BE84" rx="3" ry="3" style="stroke:#038048;stroke-width:1.0;"/><text fill="#000000" font-family="sans-serif" font-size="14" lengthAdjust="spacing" textLength="171" x="42" y="754.8457">getNextSurveyIdValue(): int</text><ellipse cx="33" cy="768.2266" fill="#84BE84" rx="3" ry="3" style="stroke:#038048;stroke-width:1.0;"/><text fill="#000000" font-family="sans-serif" font-size="14" lengthAdjust="spacing" textLength="218" x="42" y="772.4551">canCreateMoreSurveys(): boolean</text><ellipse cx="33" cy="785.8359" fill="#84BE84" rx="3" ry="3" style="stroke:#038048;stroke-width:1.0;"/><text fill="#000000" font-family="sans-serif" font-size="14" lengthAdjust="spacing" textLength="227" x="42" y="790.0645">addQuestion(String, Question): void</text><ellipse cx="33" cy="803.4453" fill="#84BE84" rx="3" ry="3" style="stroke:#038048;stroke-width:1.0;"/><text fill="#000000" font-family="sans-serif" font-size="14" lengthAdjust="spacing" textLength="200" x="42" y="807.6738">deleteQuestion(String, int): void</text><ellipse cx="33" cy="821.0547" fill="#84BE84" rx="3" ry="3" style="stroke:#038048;stroke-width:1.0;"/><text fill="#000000" font-family="sans-serif" font-size="14" lengthAdjust="spacing" textLength="270" x="42" y="825.2832">updateQuestion(String, int, Question): void</text><ellipse cx="33" cy="838.6641" fill="#84BE84" rx="3" ry="3" style="stroke:#038048;stroke-width:1.0;"/><text fill="#000000" font-family="sans-serif" font-size="14" lengthAdjust="spacing" textLength="212" x="42" y="842.8926">getQuestion(String, int): Question</text><ellipse cx="33" cy="856.2734" fill="#84BE84" rx="3" ry="3" style="stroke:#038048;stroke-width:1.0;"/><text fill="#000000" font-family="sans-serif" font-size="14" lengthAdjust="spacing" textLength="249" x="42" y="860.502">getAllQuestions(String): List&lt;Question&gt;</text><ellipse cx="33" cy="873.8828" fill="#84BE84" rx="3" ry="3" style="stroke:#038048;stroke-width:1.0;"/><text fill="#000000" font-family="sans-serif" font-size="14" lengthAdjust="spacing" textLength="182" x="42" y="878.1113">getNumQuestions(String): int</text><ellipse cx="33" cy="891.4922" fill="#84BE84" rx="3" ry="3" style="stroke:#038048;stroke-width:1.0;"/><text fill="#000000" font-family="sans-serif" font-size="14" lengthAdjust="spacing" textLength="223" x="42" y="895.7207">swapQuestions(String, int, int): void</text><ellipse cx="33" cy="909.1016" fill="#84BE84" rx="3" ry="3" style="stroke:#038048;stroke-width:1.0;"/><text fill="#000000" font-family="sans-serif" font-size="14" lengthAdjust="spacing" textLength="199" x="42" y="913.3301">deleteAllQuestions(String): void</text></g></a><!--class data.UserRepository--><a href="UserRepository.html" target="_top" title="UserRepository.html" xlink:actuate="onRequest" xlink:href="UserRepository.html" xlink:show="new" xlink:title="UserRepository.html" xlink:type="simple"><g id="elem_data.UserRepository"><rect codeLine="56" fill="#F1F1F1" height="400.1875" id="data.UserRepository" rx="2.5" ry="2.5" style="stroke:#181818;stroke-width:0.5;" width="394" x="371" y="502.5"/><ellipse cx="515.25" cy="518.5" fill="#ADD1B2" rx="11" ry="11" style="stroke:#181818;stroke-width:1.0;"/><path d="M518.0156,514.375 Q518.1719,514.1563 518.3594,514.0469 Q518.5469,513.9375 518.7656,513.9375 Q519.1406,513.9375 519.375,514.2031 Q519.6094,514.4531 519.6094,515.0625 L519.6094,516.5156 Q519.6094,517.125 519.375,517.3906 Q519.1406,517.6563 518.7656,517.6563 Q518.4219,517.6563 518.2188,517.4531 Q518.0156,517.2656 517.9063,516.75 Q517.8594,516.3906 517.6719,516.2031 Q517.3438,515.8281 516.7344,515.6094 Q516.125,515.3906 515.5,515.3906 Q514.7344,515.3906 514.0938,515.7188 Q513.4688,516.0469 512.9688,516.7969 Q512.4844,517.5469 512.4844,518.5781 L512.4844,519.6719 Q512.4844,520.9063 513.375,521.7344 Q514.2656,522.5469 515.8594,522.5469 Q516.7969,522.5469 517.4531,522.2969 Q517.8438,522.1406 518.2656,521.7031 Q518.5313,521.4375 518.6719,521.3594 Q518.8281,521.2813 519.0313,521.2813 Q519.3594,521.2813 519.6094,521.5469 Q519.875,521.7969 519.875,522.1406 Q519.875,522.4844 519.5313,522.8906 Q519.0313,523.4688 518.2344,523.7969 Q517.1563,524.25 515.8594,524.25 Q514.3438,524.25 513.1406,523.625 Q512.1563,523.125 511.4688,522.0625 Q510.7813,520.9844 510.7813,519.7031 L510.7813,518.5469 Q510.7813,517.2188 511.3906,516.0781 Q512.0156,514.9219 513.1094,514.3125 Q514.2031,513.6875 515.4375,513.6875 Q516.1719,513.6875 516.8125,513.8594 Q517.4688,514.0156 518.0156,514.375 Z " fill="#000000"/><text fill="#000000" font-family="sans-serif" font-size="14" lengthAdjust="spacing" textLength="97" x="535.75" y="524.2285">UserRepository</text><line style="stroke:#181818;stroke-width:0.5;" x1="372" x2="764" y1="534.5" y2="534.5"/><line style="stroke:#181818;stroke-width:0.5;" x1="372" x2="764" y1="542.5" y2="542.5"/><ellipse cx="382" cy="556.8047" fill="#84BE84" rx="3" ry="3" style="stroke:#038048;stroke-width:1.0;"/><text fill="#000000" font-family="sans-serif" font-size="14" lengthAdjust="spacing" textLength="107" x="391" y="561.0332">UserRepository()</text><ellipse cx="382" cy="574.4141" fill="#84BE84" rx="3" ry="3" style="stroke:#038048;stroke-width:1.0;"/><text fill="#000000" font-family="sans-serif" font-size="14" lengthAdjust="spacing" textLength="144" x="391" y="578.6426">UserRepository(String)</text><ellipse cx="382" cy="592.0234" fill="#84BE84" rx="3" ry="3" style="stroke:#038048;stroke-width:1.0;"/><text fill="#000000" font-family="sans-serif" font-size="14" lengthAdjust="spacing" textLength="75" x="391" y="596.252">clear(): void</text><ellipse cx="382" cy="609.6328" fill="#84BE84" rx="3" ry="3" style="stroke:#038048;stroke-width:1.0;"/><text fill="#000000" font-family="sans-serif" font-size="14" lengthAdjust="spacing" textLength="126" x="391" y="613.8613">addUser(User): void</text><ellipse cx="382" cy="627.2422" fill="#84BE84" rx="3" ry="3" style="stroke:#038048;stroke-width:1.0;"/><text fill="#000000" font-family="sans-serif" font-size="14" lengthAdjust="spacing" textLength="149" x="391" y="631.4707">deleteUser(String): void</text><ellipse cx="382" cy="644.8516" fill="#84BE84" rx="3" ry="3" style="stroke:#038048;stroke-width:1.0;"/><text fill="#000000" font-family="sans-serif" font-size="14" lengthAdjust="spacing" textLength="133" x="391" y="649.0801">getUser(String): User</text><ellipse cx="382" cy="662.4609" fill="#84BE84" rx="3" ry="3" style="stroke:#038048;stroke-width:1.0;"/><text fill="#000000" font-family="sans-serif" font-size="14" lengthAdjust="spacing" textLength="198" x="391" y="666.6895">getAllUsernames(): Set&lt;String&gt;</text><ellipse cx="382" cy="680.0703" fill="#84BE84" rx="3" ry="3" style="stroke:#038048;stroke-width:1.0;"/><text fill="#000000" font-family="sans-serif" font-size="14" lengthAdjust="spacing" textLength="191" x="391" y="684.2988">updateUser(String, User): void</text><ellipse cx="382" cy="697.6797" fill="#84BE84" rx="3" ry="3" style="stroke:#038048;stroke-width:1.0;"/><text fill="#000000" font-family="sans-serif" font-size="14" lengthAdjust="spacing" textLength="170" x="391" y="701.9082">existsUser(String): boolean</text><ellipse cx="382" cy="715.2891" fill="#84BE84" rx="3" ry="3" style="stroke:#038048;stroke-width:1.0;"/><text fill="#000000" font-family="sans-serif" font-size="14" lengthAdjust="spacing" textLength="205" x="391" y="719.5176">addSurveyId(String, String): void</text><ellipse cx="382" cy="732.8984" fill="#84BE84" rx="3" ry="3" style="stroke:#038048;stroke-width:1.0;"/><text fill="#000000" font-family="sans-serif" font-size="14" lengthAdjust="spacing" textLength="220" x="391" y="737.127">deleteSurveyId(String, String): void</text><ellipse cx="382" cy="750.5078" fill="#84BE84" rx="3" ry="3" style="stroke:#038048;stroke-width:1.0;"/><text fill="#000000" font-family="sans-serif" font-size="14" lengthAdjust="spacing" textLength="241" x="391" y="754.7363">existsSurveyId(String, String): boolean</text><ellipse cx="382" cy="768.1172" fill="#84BE84" rx="3" ry="3" style="stroke:#038048;stroke-width:1.0;"/><text fill="#000000" font-family="sans-serif" font-size="14" lengthAdjust="spacing" textLength="249" x="391" y="772.3457">getGetAllSurveyIds(String): Set&lt;String&gt;</text><ellipse cx="382" cy="785.7266" fill="#84BE84" rx="3" ry="3" style="stroke:#038048;stroke-width:1.0;"/><text fill="#000000" font-family="sans-serif" font-size="14" lengthAdjust="spacing" textLength="311" x="391" y="789.9551">addRespondedSurveyIdEntry(String, String): void</text><ellipse cx="382" cy="803.3359" fill="#84BE84" rx="3" ry="3" style="stroke:#038048;stroke-width:1.0;"/><text fill="#000000" font-family="sans-serif" font-size="14" lengthAdjust="spacing" textLength="326" x="391" y="807.5645">deleteRespondedSurveyIdEntry(String, String): void</text><ellipse cx="382" cy="820.9453" fill="#84BE84" rx="3" ry="3" style="stroke:#038048;stroke-width:1.0;"/><text fill="#000000" font-family="sans-serif" font-size="14" lengthAdjust="spacing" textLength="270" x="391" y="825.1738">addResponseId(String, String, String): void</text><ellipse cx="382" cy="838.5547" fill="#84BE84" rx="3" ry="3" style="stroke:#038048;stroke-width:1.0;"/><text fill="#000000" font-family="sans-serif" font-size="14" lengthAdjust="spacing" textLength="285" x="391" y="842.7832">deleteResponseId(String, String, String): void</text><ellipse cx="382" cy="856.1641" fill="#84BE84" rx="3" ry="3" style="stroke:#038048;stroke-width:1.0;"/><text fill="#000000" font-family="sans-serif" font-size="14" lengthAdjust="spacing" textLength="306" x="391" y="860.3926">existsResponseId(String, String, String): boolean</text><ellipse cx="382" cy="873.7734" fill="#84BE84" rx="3" ry="3" style="stroke:#038048;stroke-width:1.0;"/><text fill="#000000" font-family="sans-serif" font-size="14" lengthAdjust="spacing" textLength="368" x="391" y="878.002">getAllResponseIdsFromSurvey(String, String): Set&lt;String&gt;</text><ellipse cx="382" cy="891.3828" fill="#84BE84" rx="3" ry="3" style="stroke:#038048;stroke-width:1.0;"/><text fill="#000000" font-family="sans-serif" font-size="14" lengthAdjust="spacing" textLength="299" x="391" y="895.6113">getAllRespondedSurveyIds(String): Set&lt;String&gt;</text></g></a><text fill="#888888" font-family="sans-serif" font-size="10" lengthAdjust="spacing" textLength="184" x="295" y="952.3809">UMLDoclet 2.1.0, PlantUML 1.2022.14</text><!--SRC=[dLTBQzmm4BxdL-XIy5Apj3sM4jWaJJ0aeSsINa8EgZL93LvfaUHDbjB_Nico73tjtVYmnZFVQ1wQ-QH5226ADo2sk0P4iCJexya96fwwnKAWYfopZahWTx1bef6Cxz73GqAw_2CtxUEZMW4vpyS4icYeNFWeWNTGaMBn5UrOGtpTCyXRU9KLML5IqPh31gZKqBNa3NqUmV_2qEzKOemAy2AFXPd0Os2nc4MOa09StGBcsTn-uROXTYbJWo2n7ea9MNTy1_llLBuvIgr9e0K91uBXjH5I9C6_6LE1qoWC6-k0BCSwvpAC34ONLXEPhDhMwiHRHDSgrczMVfhAEkygZgpRgew7ux8nvSfxITRCAO4usvjQguq-A2qJv8gA5-21knAfEIgHqULgdxTK5aQPAhxHY3Z1FbQZdTo0CT6fvbE-BZX-EgP1eY4tNhmH3qMP0GzXuNX7-cE7UnpPmhncftMcLY78VAUspsX4OJVCV9zEG0tn672_Vh8FlGXAD96Mool5x7WCGPpjxmLmVI85mv69dm9NGUd3OHog37iEPuY5ASxjG6FL70JRYUav1xNg3UFWb357XZyx4B9XTAo95KniTcHZfZ77K2duZ1-LRiQ95QTQmUf2nhNok7zkkqt2A2ggUC7R43UaaKlTL2eTb8UE246ta4S7lY131Zuef890-muYq2iK-cSYsnupJG4-H7-bDj9EKT-vQvWSQMV54cK3DEFiUy-DH730JPx1BliTPk4IIyeYHp5N3jjLnEccR7t6gmw1CIVtYdH0Ok-tT-vPKPO7EpxMrh_TJDdcgkpSsrIHBpdRX4V6RDdTLPpApUpOG0F3gmRzZmCzCQPVzpVN5qoDfqHVbf-NdqhqeyLKAYdwi5EN74sIY_y0]--></g></svg>