<?xml version="1.0" encoding="UTF-8" standalone="no"?><svg xmlns="http://www.w3.org/2000/svg" xmlns:xlink="http://www.w3.org/1999/xlink" contentStyleType="text/css" height="520px" preserveAspectRatio="none" style="width:1126px;height:520px;background:#FFFFFF;" version="1.1" viewBox="0 0 1126 520" width="1126px" zoomAndPan="magnify"><defs/><g><!--cluster data--><g id="cluster_data"><path d="M8.5,6 L38.25,6 A3.75,3.75 0 0 1 40.75,8.5 L47.75,26.9775 L1116.5,26.9775 A2.5,2.5 0 0 1 1119,29.4775 L1119,493.07 A2.5,2.5 0 0 1 1116.5,495.57 L8.5,495.57 A2.5,2.5 0 0 1 6,493.07 L6,8.5 A2.5,2.5 0 0 1 8.5,6 " fill="none" style="stroke:#000000;stroke-width:1.5;"/><line style="stroke:#000000;stroke-width:1.5;" x1="6" x2="47.75" y1="26.9775" y2="26.9775"/><text fill="#000000" font-family="sans-serif" font-size="14" font-weight="bold" lengthAdjust="spacing" textLength="28.75" x="10" y="20.0313">data</text></g><!--class data.UserRepository--><a href="UserRepository.html" target="_top" title="UserRepository.html" xlink:actuate="onRequest" xlink:href="UserRepository.html" xlink:show="new" xlink:title="UserRepository.html" xlink:type="simple"><g id="elem_data.UserRepository"><rect codeLine="3" fill="#F1F1F1" height="287.6406" id="data.UserRepository" rx="2.5" ry="2.5" style="stroke:#181818;stroke-width:0.5;" width="379" x="22.5" y="61.46"/><ellipse cx="161.25" cy="77.46" fill="#ADD1B2" rx="11" ry="11" style="stroke:#181818;stroke-width:1.0;"/><path d="M164.4375,83.1006 Q162.9219,83.9131 160.8906,83.9131 Q158.2344,83.9131 156.625,82.1944 Q155.0313,80.4756 155.0313,77.71 Q155.0313,74.7569 156.8281,72.9131 Q158.625,71.0694 161.375,71.0694 Q163.125,71.0694 164.4375,71.6631 L164.4375,73.7725 Q162.8438,72.8662 161.3594,72.8662 Q159.4219,72.8662 158.2188,74.1631 Q157.0156,75.4444 157.0156,77.6319 Q157.0156,79.6944 158.125,80.9131 Q159.25,82.1319 161.0781,82.1319 Q162.7813,82.1319 164.4375,81.1319 L164.4375,83.1006 Z " fill="#000000"/><text fill="#000000" font-family="sans-serif" font-size="14" lengthAdjust="spacing" textLength="93" x="181.75" y="82.0025">UserRepository</text><line style="stroke:#181818;stroke-width:0.5;" x1="23.5" x2="400.5" y1="93.46" y2="93.46"/><line style="stroke:#181818;stroke-width:0.5;" x1="23.5" x2="400.5" y1="101.46" y2="101.46"/><ellipse cx="33.5" cy="114.4488" fill="#84BE84" rx="3" ry="3" style="stroke:#038048;stroke-width:1.0;"/><text fill="#000000" font-family="sans-serif" font-size="14" lengthAdjust="spacing" textLength="120" x="42.5" y="117.4912">addUser(User): void</text><ellipse cx="33.5" cy="129.4263" fill="#84BE84" rx="3" ry="3" style="stroke:#038048;stroke-width:1.0;"/><text fill="#000000" font-family="sans-serif" font-size="14" lengthAdjust="spacing" textLength="142" x="42.5" y="132.4688">deleteUser(String): void</text><ellipse cx="33.5" cy="144.4038" fill="#84BE84" rx="3" ry="3" style="stroke:#038048;stroke-width:1.0;"/><text fill="#000000" font-family="sans-serif" font-size="14" lengthAdjust="spacing" textLength="127" x="42.5" y="147.4463">getUser(String): User</text><ellipse cx="33.5" cy="159.3814" fill="#84BE84" rx="3" ry="3" style="stroke:#038048;stroke-width:1.0;"/><text fill="#000000" font-family="sans-serif" font-size="14" lengthAdjust="spacing" textLength="193" x="42.5" y="162.4239">getAllUsernames(): Set&lt;String&gt;</text><ellipse cx="33.5" cy="174.3589" fill="#84BE84" rx="3" ry="3" style="stroke:#038048;stroke-width:1.0;"/><text fill="#000000" font-family="sans-serif" font-size="14" lengthAdjust="spacing" textLength="183" x="42.5" y="177.4014">updateUser(String, User): void</text><ellipse cx="33.5" cy="189.3365" fill="#84BE84" rx="3" ry="3" style="stroke:#038048;stroke-width:1.0;"/><text fill="#000000" font-family="sans-serif" font-size="14" lengthAdjust="spacing" textLength="161" x="42.5" y="192.3789">existsUser(String): boolean</text><ellipse cx="33.5" cy="204.314" fill="#84BE84" rx="3" ry="3" style="stroke:#038048;stroke-width:1.0;"/><text fill="#000000" font-family="sans-serif" font-size="14" lengthAdjust="spacing" textLength="196" x="42.5" y="207.3565">addSurveyId(String, String): void</text><ellipse cx="33.5" cy="219.2915" fill="#84BE84" rx="3" ry="3" style="stroke:#038048;stroke-width:1.0;"/><text fill="#000000" font-family="sans-serif" font-size="14" lengthAdjust="spacing" textLength="210" x="42.5" y="222.334">deleteSurveyId(String, String): void</text><ellipse cx="33.5" cy="234.2691" fill="#84BE84" rx="3" ry="3" style="stroke:#038048;stroke-width:1.0;"/><text fill="#000000" font-family="sans-serif" font-size="14" lengthAdjust="spacing" textLength="229" x="42.5" y="237.3116">existsSurveyId(String, String): boolean</text><ellipse cx="33.5" cy="249.2466" fill="#84BE84" rx="3" ry="3" style="stroke:#038048;stroke-width:1.0;"/><text fill="#000000" font-family="sans-serif" font-size="14" lengthAdjust="spacing" textLength="242" x="42.5" y="252.2891">getGetAllSurveyIds(String): Set&lt;String&gt;</text><ellipse cx="33.5" cy="264.2242" fill="#84BE84" rx="3" ry="3" style="stroke:#038048;stroke-width:1.0;"/><text fill="#000000" font-family="sans-serif" font-size="14" lengthAdjust="spacing" textLength="296" x="42.5" y="267.2666">addRespondedSurveyIdEntry(String, String): void</text><ellipse cx="33.5" cy="279.2017" fill="#84BE84" rx="3" ry="3" style="stroke:#038048;stroke-width:1.0;"/><text fill="#000000" font-family="sans-serif" font-size="14" lengthAdjust="spacing" textLength="310" x="42.5" y="282.2442">deleteRespondedSurveyIdEntry(String, String): void</text><ellipse cx="33.5" cy="294.1792" fill="#84BE84" rx="3" ry="3" style="stroke:#038048;stroke-width:1.0;"/><text fill="#000000" font-family="sans-serif" font-size="14" lengthAdjust="spacing" textLength="256" x="42.5" y="297.2217">addResponseId(String, String, String): void</text><ellipse cx="33.5" cy="309.1568" fill="#84BE84" rx="3" ry="3" style="stroke:#038048;stroke-width:1.0;"/><text fill="#000000" font-family="sans-serif" font-size="14" lengthAdjust="spacing" textLength="270" x="42.5" y="312.1993">deleteResponseId(String, String, String): void</text><ellipse cx="33.5" cy="324.1343" fill="#84BE84" rx="3" ry="3" style="stroke:#038048;stroke-width:1.0;"/><text fill="#000000" font-family="sans-serif" font-size="14" lengthAdjust="spacing" textLength="289" x="42.5" y="327.1768">existsResponseId(String, String, String): boolean</text><ellipse cx="33.5" cy="339.1119" fill="#84BE84" rx="3" ry="3" style="stroke:#038048;stroke-width:1.0;"/><text fill="#000000" font-family="sans-serif" font-size="14" lengthAdjust="spacing" textLength="353" x="42.5" y="342.1543">getAllResponseIdsFromSurvey(String, String): Set&lt;String&gt;</text></g></a><!--class data.ResponseRepository--><a href="ResponseRepository.html" target="_top" title="ResponseRepository.html" xlink:actuate="onRequest" xlink:href="ResponseRepository.html" xlink:show="new" xlink:title="ResponseRepository.html" xlink:type="simple"><g id="elem_data.ResponseRepository"><rect codeLine="22" fill="#F1F1F1" height="272.6631" id="data.ResponseRepository" rx="2.5" ry="2.5" style="stroke:#181818;stroke-width:0.5;" width="328" x="437" y="68.95"/><ellipse cx="535.25" cy="84.95" fill="#ADD1B2" rx="11" ry="11" style="stroke:#181818;stroke-width:1.0;"/><path d="M538.4375,90.5906 Q536.9219,91.4031 534.8906,91.4031 Q532.2344,91.4031 530.625,89.6844 Q529.0313,87.9656 529.0313,85.2 Q529.0313,82.2469 530.8281,80.4031 Q532.625,78.5594 535.375,78.5594 Q537.125,78.5594 538.4375,79.1531 L538.4375,81.2625 Q536.8438,80.3562 535.3594,80.3562 Q533.4219,80.3562 532.2188,81.6531 Q531.0156,82.9344 531.0156,85.1219 Q531.0156,87.1844 532.125,88.4031 Q533.25,89.6219 535.0781,89.6219 Q536.7813,89.6219 538.4375,88.6219 L538.4375,90.5906 Z " fill="#000000"/><text fill="#000000" font-family="sans-serif" font-size="14" lengthAdjust="spacing" textLength="123" x="555.75" y="89.4925">ResponseRepository</text><line style="stroke:#181818;stroke-width:0.5;" x1="438" x2="764" y1="100.95" y2="100.95"/><line style="stroke:#181818;stroke-width:0.5;" x1="438" x2="764" y1="108.95" y2="108.95"/><ellipse cx="448" cy="121.9388" fill="#84BE84" rx="3" ry="3" style="stroke:#038048;stroke-width:1.0;"/><text fill="#000000" font-family="sans-serif" font-size="14" lengthAdjust="spacing" textLength="166" x="457" y="124.9812">getLastResponseId(): String</text><ellipse cx="448" cy="136.9163" fill="#84BE84" rx="3" ry="3" style="stroke:#038048;stroke-width:1.0;"/><text fill="#000000" font-family="sans-serif" font-size="14" lengthAdjust="spacing" textLength="190" x="457" y="139.9588">setLastResponseId(String): void</text><ellipse cx="448" cy="151.8938" fill="#84BE84" rx="3" ry="3" style="stroke:#038048;stroke-width:1.0;"/><text fill="#000000" font-family="sans-serif" font-size="14" lengthAdjust="spacing" textLength="173" x="457" y="154.9363">addSurveyEntry(String): void</text><ellipse cx="448" cy="166.8714" fill="#84BE84" rx="3" ry="3" style="stroke:#038048;stroke-width:1.0;"/><text fill="#000000" font-family="sans-serif" font-size="14" lengthAdjust="spacing" textLength="187" x="457" y="169.9139">deleteSurveyEntry(String): void</text><ellipse cx="448" cy="181.8489" fill="#84BE84" rx="3" ry="3" style="stroke:#038048;stroke-width:1.0;"/><text fill="#000000" font-family="sans-serif" font-size="14" lengthAdjust="spacing" textLength="206" x="457" y="184.8914">existsSurveyEntry(String): boolean</text><ellipse cx="448" cy="196.8265" fill="#84BE84" rx="3" ry="3" style="stroke:#038048;stroke-width:1.0;"/><text fill="#000000" font-family="sans-serif" font-size="14" lengthAdjust="spacing" textLength="223" x="457" y="199.8689">addResponse(String, Response): void</text><ellipse cx="448" cy="211.804" fill="#84BE84" rx="3" ry="3" style="stroke:#038048;stroke-width:1.0;"/><text fill="#000000" font-family="sans-serif" font-size="14" lengthAdjust="spacing" textLength="230" x="457" y="214.8465">getResponse(String, String): Response</text><ellipse cx="448" cy="226.7815" fill="#84BE84" rx="3" ry="3" style="stroke:#038048;stroke-width:1.0;"/><text fill="#000000" font-family="sans-serif" font-size="14" lengthAdjust="spacing" textLength="249" x="457" y="229.824">getAllResponses(String): List&lt;Response&gt;</text><ellipse cx="448" cy="241.7591" fill="#84BE84" rx="3" ry="3" style="stroke:#038048;stroke-width:1.0;"/><text fill="#000000" font-family="sans-serif" font-size="14" lengthAdjust="spacing" textLength="215" x="457" y="244.8016">deleteResponse(String, String): void</text><ellipse cx="448" cy="256.7366" fill="#84BE84" rx="3" ry="3" style="stroke:#038048;stroke-width:1.0;"/><text fill="#000000" font-family="sans-serif" font-size="14" lengthAdjust="spacing" textLength="243" x="457" y="259.7791">updateResponse(String, Response): void</text><ellipse cx="448" cy="271.7142" fill="#84BE84" rx="3" ry="3" style="stroke:#038048;stroke-width:1.0;"/><text fill="#000000" font-family="sans-serif" font-size="14" lengthAdjust="spacing" textLength="234" x="457" y="274.7566">existsResponse(String, String): boolean</text><ellipse cx="448" cy="286.6917" fill="#84BE84" rx="3" ry="3" style="stroke:#038048;stroke-width:1.0;"/><text fill="#000000" font-family="sans-serif" font-size="14" lengthAdjust="spacing" textLength="302" x="457" y="289.7342">getResponsesBySurveyId(String): List&lt;Response&gt;</text><ellipse cx="448" cy="301.6692" fill="#84BE84" rx="3" ry="3" style="stroke:#038048;stroke-width:1.0;"/><text fill="#000000" font-family="sans-serif" font-size="14" lengthAdjust="spacing" textLength="283" x="457" y="304.7117">updateAnswer(String, String, int, Answer): void</text><ellipse cx="448" cy="316.6468" fill="#84BE84" rx="3" ry="3" style="stroke:#038048;stroke-width:1.0;"/><text fill="#000000" font-family="sans-serif" font-size="14" lengthAdjust="spacing" textLength="227" x="457" y="319.6893">getAnswer(String, String, int): Answer</text><ellipse cx="448" cy="331.6243" fill="#84BE84" rx="3" ry="3" style="stroke:#038048;stroke-width:1.0;"/><text fill="#000000" font-family="sans-serif" font-size="14" lengthAdjust="spacing" textLength="266" x="457" y="334.6668">getAllAnswers(String, String): List&lt;Answer&gt;</text></g></a><!--class data.SurveyRepository--><a href="SurveyRepository.html" target="_top" title="SurveyRepository.html" xlink:actuate="onRequest" xlink:href="SurveyRepository.html" xlink:show="new" xlink:title="SurveyRepository.html" xlink:type="simple"><g id="elem_data.SurveyRepository"><rect codeLine="40" fill="#F1F1F1" height="332.5732" id="data.SurveyRepository" rx="2.5" ry="2.5" style="stroke:#181818;stroke-width:0.5;" width="303" x="800.5" y="39"/><ellipse cx="894.75" cy="55" fill="#ADD1B2" rx="11" ry="11" style="stroke:#181818;stroke-width:1.0;"/><path d="M897.9375,60.6406 Q896.4219,61.4531 894.3906,61.4531 Q891.7344,61.4531 890.125,59.7344 Q888.5313,58.0156 888.5313,55.25 Q888.5313,52.2969 890.3281,50.4531 Q892.125,48.6094 894.875,48.6094 Q896.625,48.6094 897.9375,49.2031 L897.9375,51.3125 Q896.3438,50.4063 894.8594,50.4063 Q892.9219,50.4063 891.7188,51.7031 Q890.5156,52.9844 890.5156,55.1719 Q890.5156,57.2344 891.625,58.4531 Q892.75,59.6719 894.5781,59.6719 Q896.2813,59.6719 897.9375,58.6719 L897.9375,60.6406 Z " fill="#000000"/><text fill="#000000" font-family="sans-serif" font-size="14" lengthAdjust="spacing" textLength="106" x="915.25" y="59.5425">SurveyRepository</text><line style="stroke:#181818;stroke-width:0.5;" x1="801.5" x2="1102.5" y1="71" y2="71"/><line style="stroke:#181818;stroke-width:0.5;" x1="801.5" x2="1102.5" y1="79" y2="79"/><ellipse cx="811.5" cy="91.9888" fill="#84BE84" rx="3" ry="3" style="stroke:#038048;stroke-width:1.0;"/><text fill="#000000" font-family="sans-serif" font-size="14" lengthAdjust="spacing" textLength="146" x="820.5" y="95.0313">addSurvey(Survey): void</text><ellipse cx="811.5" cy="106.9663" fill="#84BE84" rx="3" ry="3" style="stroke:#038048;stroke-width:1.0;"/><text fill="#000000" font-family="sans-serif" font-size="14" lengthAdjust="spacing" textLength="155" x="820.5" y="110.0088">deleteSurvey(String): void</text><ellipse cx="811.5" cy="121.9438" fill="#84BE84" rx="3" ry="3" style="stroke:#038048;stroke-width:1.0;"/><text fill="#000000" font-family="sans-serif" font-size="14" lengthAdjust="spacing" textLength="153" x="820.5" y="124.9863">getSurvey(String): Survey</text><ellipse cx="811.5" cy="136.9214" fill="#84BE84" rx="3" ry="3" style="stroke:#038048;stroke-width:1.0;"/><text fill="#000000" font-family="sans-serif" font-size="14" lengthAdjust="spacing" textLength="179" x="820.5" y="139.9639">getAllSurveys(): List&lt;Survey&gt;</text><ellipse cx="811.5" cy="151.8989" fill="#84BE84" rx="3" ry="3" style="stroke:#038048;stroke-width:1.0;"/><text fill="#000000" font-family="sans-serif" font-size="14" lengthAdjust="spacing" textLength="186" x="820.5" y="154.9414">getAllSurveysId(): List&lt;String&gt;</text><ellipse cx="811.5" cy="166.8765" fill="#84BE84" rx="3" ry="3" style="stroke:#038048;stroke-width:1.0;"/><text fill="#000000" font-family="sans-serif" font-size="14" lengthAdjust="spacing" textLength="209" x="820.5" y="169.9189">updateSurvey(String, Survey): void</text><ellipse cx="811.5" cy="181.854" fill="#84BE84" rx="3" ry="3" style="stroke:#038048;stroke-width:1.0;"/><text fill="#000000" font-family="sans-serif" font-size="14" lengthAdjust="spacing" textLength="174" x="820.5" y="184.8965">existsSurvey(String): boolean</text><ellipse cx="811.5" cy="196.8315" fill="#84BE84" rx="3" ry="3" style="stroke:#038048;stroke-width:1.0;"/><text fill="#000000" font-family="sans-serif" font-size="14" lengthAdjust="spacing" textLength="277" x="820.5" y="199.874">getSurveysByUsername(String): List&lt;Survey&gt;</text><ellipse cx="811.5" cy="211.8091" fill="#84BE84" rx="3" ry="3" style="stroke:#038048;stroke-width:1.0;"/><text fill="#000000" font-family="sans-serif" font-size="14" lengthAdjust="spacing" textLength="186" x="820.5" y="214.8516">generateNextSurveyId(): String</text><ellipse cx="811.5" cy="226.7866" fill="#84BE84" rx="3" ry="3" style="stroke:#038048;stroke-width:1.0;"/><text fill="#000000" font-family="sans-serif" font-size="14" lengthAdjust="spacing" textLength="166" x="820.5" y="229.8291">getNextSurveyIdValue(): int</text><ellipse cx="811.5" cy="241.7642" fill="#84BE84" rx="3" ry="3" style="stroke:#038048;stroke-width:1.0;"/><text fill="#000000" font-family="sans-serif" font-size="14" lengthAdjust="spacing" textLength="205" x="820.5" y="244.8066">canCreateMoreSurveys(): boolean</text><ellipse cx="811.5" cy="256.7417" fill="#84BE84" rx="3" ry="3" style="stroke:#038048;stroke-width:1.0;"/><text fill="#000000" font-family="sans-serif" font-size="14" lengthAdjust="spacing" textLength="219" x="820.5" y="259.7842">addQuestion(String, Question): void</text><ellipse cx="811.5" cy="271.7192" fill="#84BE84" rx="3" ry="3" style="stroke:#038048;stroke-width:1.0;"/><text fill="#000000" font-family="sans-serif" font-size="14" lengthAdjust="spacing" textLength="193" x="820.5" y="274.7617">deleteQuestion(String, int): void</text><ellipse cx="811.5" cy="286.6968" fill="#84BE84" rx="3" ry="3" style="stroke:#038048;stroke-width:1.0;"/><text fill="#000000" font-family="sans-serif" font-size="14" lengthAdjust="spacing" textLength="262" x="820.5" y="289.7393">updateQuestion(String, int, Question): void</text><ellipse cx="811.5" cy="301.6743" fill="#84BE84" rx="3" ry="3" style="stroke:#038048;stroke-width:1.0;"/><text fill="#000000" font-family="sans-serif" font-size="14" lengthAdjust="spacing" textLength="206" x="820.5" y="304.7168">getQuestion(String, int): Question</text><ellipse cx="811.5" cy="316.6519" fill="#84BE84" rx="3" ry="3" style="stroke:#038048;stroke-width:1.0;"/><text fill="#000000" font-family="sans-serif" font-size="14" lengthAdjust="spacing" textLength="245" x="820.5" y="319.6943">getAllQuestions(String): List&lt;Question&gt;</text><ellipse cx="811.5" cy="331.6294" fill="#84BE84" rx="3" ry="3" style="stroke:#038048;stroke-width:1.0;"/><text fill="#000000" font-family="sans-serif" font-size="14" lengthAdjust="spacing" textLength="179" x="820.5" y="334.6719">getNumQuestions(String): int</text><ellipse cx="811.5" cy="346.6069" fill="#84BE84" rx="3" ry="3" style="stroke:#038048;stroke-width:1.0;"/><text fill="#000000" font-family="sans-serif" font-size="14" lengthAdjust="spacing" textLength="216" x="820.5" y="349.6494">swapQuestions(String, int, int): void</text><ellipse cx="811.5" cy="361.5845" fill="#84BE84" rx="3" ry="3" style="stroke:#038048;stroke-width:1.0;"/><text fill="#000000" font-family="sans-serif" font-size="14" lengthAdjust="spacing" textLength="191" x="820.5" y="364.627">deleteAllQuestions(String): void</text></g></a><!--class data.QuestionRepository--><a href="QuestionRepository.html" target="_top" title="QuestionRepository.html" xlink:actuate="onRequest" xlink:href="QuestionRepository.html" xlink:show="new" xlink:title="QuestionRepository.html" xlink:type="simple"><g id="elem_data.QuestionRepository"><rect codeLine="62" fill="#F1F1F1" height="48" id="data.QuestionRepository" rx="2.5" ry="2.5" style="stroke:#181818;stroke-width:0.5;" width="153" x="135.5" y="431.57"/><ellipse cx="150.5" cy="447.57" fill="#ADD1B2" rx="11" ry="11" style="stroke:#181818;stroke-width:1.0;"/><path d="M153.6875,453.2106 Q152.1719,454.0231 150.1406,454.0231 Q147.4844,454.0231 145.875,452.3044 Q144.2813,450.5856 144.2813,447.82 Q144.2813,444.8669 146.0781,443.0231 Q147.875,441.1794 150.625,441.1794 Q152.375,441.1794 153.6875,441.7731 L153.6875,443.8825 Q152.0938,442.9763 150.6094,442.9763 Q148.6719,442.9763 147.4688,444.2731 Q146.2656,445.5544 146.2656,447.7419 Q146.2656,449.8044 147.375,451.0231 Q148.5,452.2419 150.3281,452.2419 Q152.0313,452.2419 153.6875,451.2419 L153.6875,453.2106 Z " fill="#000000"/><text fill="#000000" font-family="sans-serif" font-size="14" lengthAdjust="spacing" textLength="121" x="164.5" y="452.1125">QuestionRepository</text><line style="stroke:#181818;stroke-width:0.5;" x1="136.5" x2="287.5" y1="463.57" y2="463.57"/><line style="stroke:#181818;stroke-width:0.5;" x1="136.5" x2="287.5" y1="471.57" y2="471.57"/></g></a><!--class data.AnswerRepository--><a href="AnswerRepository.html" target="_top" title="AnswerRepository.html" xlink:actuate="onRequest" xlink:href="AnswerRepository.html" xlink:show="new" xlink:title="AnswerRepository.html" xlink:type="simple"><g id="elem_data.AnswerRepository"><rect codeLine="64" fill="#F1F1F1" height="48" id="data.AnswerRepository" rx="2.5" ry="2.5" style="stroke:#181818;stroke-width:0.5;" width="142" x="323" y="431.57"/><ellipse cx="338" cy="447.57" fill="#ADD1B2" rx="11" ry="11" style="stroke:#181818;stroke-width:1.0;"/><path d="M341.1875,453.2106 Q339.6719,454.0231 337.6406,454.0231 Q334.9844,454.0231 333.375,452.3044 Q331.7813,450.5856 331.7813,447.82 Q331.7813,444.8669 333.5781,443.0231 Q335.375,441.1794 338.125,441.1794 Q339.875,441.1794 341.1875,441.7731 L341.1875,443.8825 Q339.5938,442.9763 338.1094,442.9763 Q336.1719,442.9763 334.9688,444.2731 Q333.7656,445.5544 333.7656,447.7419 Q333.7656,449.8044 334.875,451.0231 Q336,452.2419 337.8281,452.2419 Q339.5313,452.2419 341.1875,451.2419 L341.1875,453.2106 Z " fill="#000000"/><text fill="#000000" font-family="sans-serif" font-size="14" lengthAdjust="spacing" textLength="110" x="352" y="452.1125">AnswerRepository</text><line style="stroke:#181818;stroke-width:0.5;" x1="324" x2="464" y1="463.57" y2="463.57"/><line style="stroke:#181818;stroke-width:0.5;" x1="324" x2="464" y1="471.57" y2="471.57"/></g></a><text fill="#888888" font-family="sans-serif" font-size="10" lengthAdjust="spacing" textLength="161" x="475.5" y="510.1638">UMLDoclet 2.1.0, PlantUML 1.2022.14</text><!--SRC=[dLLDRzim3BttL-Wo8CM2OEsnA0Aq-qA1jDWQT9UY1ytcEWEE54XoMcFOVnzjMgu-BDjP3Z5ClcVoKIJ566E2xq3lUGOivuQpFoSdhFjb9TUQFMXGzx2NkZ1IrUpnqJUiVfjT-VI4FERytlCyRt2Bvk_qWXraaVk074emq6AsHXNYUH3r3CQ7D6yHvAei6tkhP86WBPXBOgnzRBL7ZMxG9Kic2A-5DjgF_bFA4hY8f6uhTO3w9k-_EYA9X1_3e4pIZC6ii2nVsyfOddwJaQmFIhd7Pf0YXrxJPs5KFL_O__Fxu1eYbRC37ykbsixXfggC9NwZwozAxaXvB7cex7_3SRFVyaOkDYR63lFPS6qSFKtSDgOFr15m_6H8atkMayqz2NRxEW2d1itcsnVN6bBR8oBq8Qndx42TcTbWhfVMlXvhm3czJeleE3L-gyvV0xsOwphO8HEoACaheL-SVMcVXJ1BHhvKxTDCP91pgFZaqR70DbVoZWmGQVJ69pIbxomxkkrZiiCdRguGHEz3aidJtbsjI7fVZq1fiWcSlkd2JPIMvSxYOhAbkYIkQtlj1WsLo5-0mgJkuDNqZPXOJnZ3XVtWPGKD5dl71sPSV5I0NxsL2fmofXR8zmgqAQJeQs8D8uSTSQY3KrCz19-8Wt8JGQnvg1MiBznIrXxtprsr6o15HTKlV1_YEXafwLIfuQGyT3Ilbk1DR6piPZPaqphmkA79OtRXCn065FibPVDukDryaXaAOEUhizM79VjMSc7GojuTS1CrftBw3m00]--></g></svg>