<?xml version="1.0" encoding="UTF-8" standalone="no"?><svg xmlns="http://www.w3.org/2000/svg" xmlns:xlink="http://www.w3.org/1999/xlink" contentStyleType="text/css" height="245px" preserveAspectRatio="none" style="width:235px;height:245px;background:#FFFFFF;" version="1.1" viewBox="0 0 235 245" width="235px" zoomAndPan="magnify"><defs/><g><!--class domain.clustering.Centroid--><a href="Centroid.html" target="_top" title="Centroid.html" xlink:actuate="onRequest" xlink:href="Centroid.html" xlink:show="new" xlink:title="Centroid.html" xlink:type="simple"><g id="elem_domain.clustering.Centroid"><rect codeLine="5" fill="#F1F1F1" height="118.5635" id="domain.clustering.Centroid" rx="2.5" ry="2.5" style="stroke:#181818;stroke-width:0.5;" width="221" x="7" y="102.68"/><ellipse cx="74.25" cy="120.5179" fill="#ADD1B2" rx="11" ry="11" style="stroke:#181818;stroke-width:1.0;"/><path d="M77.4375,126.1585 Q75.9219,126.971 73.8906,126.971 Q71.2344,126.971 69.625,125.2523 Q68.0313,123.5335 68.0313,120.7679 Q68.0313,117.8148 69.8281,115.971 Q71.625,114.1273 74.375,114.1273 Q76.125,114.1273 77.4375,114.721 L77.4375,116.8304 Q75.8438,115.9241 74.3594,115.9241 Q72.4219,115.9241 71.2188,117.221 Q70.0156,118.5023 70.0156,120.6898 Q70.0156,122.7523 71.125,123.971 Q72.25,125.1898 74.0781,125.1898 Q75.7813,125.1898 77.4375,124.1898 L77.4375,126.1585 Z " fill="#000000"/><text fill="#000000" font-family="sans-serif" font-size="14" lengthAdjust="spacing" textLength="53" x="107.25" y="119.7113">Centroid</text><text fill="#000000" font-family="sans-serif" font-size="10" lengthAdjust="spacing" textLength="78" x="94.75" y="131.2513">domain.clustering</text><line style="stroke:#181818;stroke-width:0.5;" x1="8" x2="227" y1="138.3558" y2="138.3558"/><ellipse cx="18" cy="151.3446" fill="#84BE84" rx="3" ry="3" style="stroke:#038048;stroke-width:1.0;"/><text fill="#000000" font-family="sans-serif" font-size="14" lengthAdjust="spacing" textLength="77" x="27" y="154.387">Centroid(int)</text><ellipse cx="18" cy="166.3221" fill="#84BE84" rx="3" ry="3" style="stroke:#038048;stroke-width:1.0;"/><text fill="#000000" font-family="sans-serif" font-size="14" lengthAdjust="spacing" textLength="152" x="27" y="169.3646">getNumDimensions(): int</text><ellipse cx="18" cy="181.2996" fill="#84BE84" rx="3" ry="3" style="stroke:#038048;stroke-width:1.0;"/><text fill="#000000" font-family="sans-serif" font-size="14" lengthAdjust="spacing" textLength="195" x="27" y="184.3421">getComponents(): List&lt;Object&gt;</text><ellipse cx="18" cy="196.2772" fill="#84BE84" rx="3" ry="3" style="stroke:#038048;stroke-width:1.0;"/><text fill="#000000" font-family="sans-serif" font-size="14" lengthAdjust="spacing" textLength="164" x="27" y="199.3196">getComponent(int): Object</text><ellipse cx="18" cy="211.2547" fill="#84BE84" rx="3" ry="3" style="stroke:#038048;stroke-width:1.0;"/><text fill="#000000" font-family="sans-serif" font-size="14" lengthAdjust="spacing" textLength="195" x="27" y="214.2972">setComponent(int, Object): void</text></g></a><!--class java.lang.Cloneable--><a href="https://docs.oracle.com/en/java/javase/21/docs/api/java.base/java/lang/Cloneable.html?is-external=true" target="_top" title="https://docs.oracle.com/en/java/javase/21/docs/api/java.base/java/lang/Cloneable.html?is-external=true" xlink:actuate="onRequest" xlink:href="https://docs.oracle.com/en/java/javase/21/docs/api/java.base/java/lang/Cloneable.html?is-external=true" xlink:show="new" xlink:title="https://docs.oracle.com/en/java/javase/21/docs/api/java.base/java/lang/Cloneable.html?is-external=true" xlink:type="simple"><g id="elem_java.lang.Cloneable"><rect codeLine="13" fill="#F1F1F1" height="35.6758" id="java.lang.Cloneable" rx="2.5" ry="2.5" style="stroke:#181818;stroke-width:0.5;" width="92" x="71.5" y="7"/><ellipse cx="86.5" cy="24.8379" fill="#B4A7E5" rx="11" ry="11" style="stroke:#181818;stroke-width:1.0;"/><path d="M86.9844,31.3379 L85.0625,31.3379 L85.0625,18.9004 L86.9844,18.9004 L86.9844,31.3379 Z " fill="#000000"/><text fill="#000000" font-family="sans-serif" font-size="14" font-style="italic" lengthAdjust="spacing" textLength="60" x="100.5" y="24.0313">Cloneable</text><text fill="#000000" font-family="sans-serif" font-size="10" font-style="italic" lengthAdjust="spacing" textLength="38" x="111.5" y="35.5713">java.lang</text></g></a><!--reverse link java.lang.Cloneable to domain.clustering.Centroid--><g id="link_java.lang.Cloneable_domain.clustering.Centroid"><path codeLine="15" d="M117.5,64.07 C117.5,75.99 117.5,89.42 117.5,102.4 " fill="none" id="java.lang.Cloneable-backto-domain.clustering.Centroid" style="stroke:#181818;stroke-width:1.0;stroke-dasharray:7.0,7.0;"/><polygon fill="none" points="110.5,64.47,117.5,44.47,124.5,64.47,110.5,64.47" style="stroke:#181818;stroke-width:1.0;"/></g><text fill="#888888" font-family="sans-serif" font-size="10" lengthAdjust="spacing" textLength="161" x="30" y="235.8372">UMLDoclet 2.1.0, PlantUML 1.2022.14</text><!--SRC=[VP99Ry8m48Nl_HKZf4gWKWTGJn6b1pZIHQfweZcOP216NYBFWBh-zpecBAMeEMHvyytu-Ja008GCLXgaIkRuZ9Nqafq7wonUX3AKga10K_4xB1JgWavLWrow84Szrv88MaDI7vZsRqPZjEoTAbvj8_L6XJDIMP7hDJ5wPPSja0H_LB5hXTbizofADZhBu3EkLLzNkr9RMUuSv2NomzfCb45BobbgTr88n2zWx4mLTcavLgUAUFWuNs7Ee_DON2A5BND0w0JfDaH0Dy5O1B-twOGg-aN8-JWX7JhbNEDHH2kvaKBB9fhzbzYp8PEIkQ8qIGgNat1UvXf5xao2DgaRueqm6VGZaSXAHKdCQpKIzSXaFp9cUwVe6j-2IIlrBVirPjdM-JaFmoyX_ZctveV0Ui-mSAv-lDnF9ouuPHY8lkXruIdCvA32vGPzVLBjpWy0]--></g></svg>