<?xml version="1.0" encoding="UTF-8" standalone="no"?><svg xmlns="http://www.w3.org/2000/svg" xmlns:xlink="http://www.w3.org/1999/xlink" contentStyleType="text/css" height="170px" preserveAspectRatio="none" style="width:592px;height:170px;background:#FFFFFF;" version="1.1" viewBox="0 0 592 170" width="592px" zoomAndPan="magnify"><defs/><g><!--class domain.clustering.QualityMetricCalculator--><a href="QualityMetricCalculator.html" target="_top" title="QualityMetricCalculator.html" xlink:actuate="onRequest" xlink:href="QualityMetricCalculator.html" xlink:show="new" xlink:title="QualityMetricCalculator.html" xlink:type="simple"><g id="elem_domain.clustering.QualityMetricCalculator"><rect codeLine="5" fill="#F1F1F1" height="136.2344" id="domain.clustering.QualityMetricCalculator" rx="2.5" ry="2.5" style="stroke:#181818;stroke-width:0.5;" width="571" x="7" y="7"/><ellipse cx="215.25" cy="27.0938" fill="#ADD1B2" rx="11" ry="11" style="stroke:#181818;stroke-width:1.0;"/><path d="M218.0156,22.9688 Q218.1719,22.75 218.3594,22.6406 Q218.5469,22.5313 218.7656,22.5313 Q219.1406,22.5313 219.375,22.7969 Q219.6094,23.0469 219.6094,23.6563 L219.6094,25.1094 Q219.6094,25.7188 219.375,25.9844 Q219.1406,26.25 218.7656,26.25 Q218.4219,26.25 218.2188,26.0469 Q218.0156,25.8594 217.9063,25.3438 Q217.8594,24.9844 217.6719,24.7969 Q217.3438,24.4219 216.7344,24.2031 Q216.125,23.9844 215.5,23.9844 Q214.7344,23.9844 214.0938,24.3125 Q213.4688,24.6406 212.9688,25.3906 Q212.4844,26.1406 212.4844,27.1719 L212.4844,28.2656 Q212.4844,29.5 213.375,30.3281 Q214.2656,31.1406 215.8594,31.1406 Q216.7969,31.1406 217.4531,30.8906 Q217.8438,30.7344 218.2656,30.2969 Q218.5313,30.0313 218.6719,29.9531 Q218.8281,29.875 219.0313,29.875 Q219.3594,29.875 219.6094,30.1406 Q219.875,30.3906 219.875,30.7344 Q219.875,31.0781 219.5313,31.4844 Q219.0313,32.0625 218.2344,32.3906 Q217.1563,32.8438 215.8594,32.8438 Q214.3438,32.8438 213.1406,32.2188 Q212.1563,31.7188 211.4688,30.6563 Q210.7813,29.5781 210.7813,28.2969 L210.7813,27.1406 Q210.7813,25.8125 211.3906,24.6719 Q212.0156,23.5156 213.1094,22.9063 Q214.2031,22.2813 215.4375,22.2813 Q216.1719,22.2813 216.8125,22.4531 Q217.4688,22.6094 218.0156,22.9688 Z " fill="#000000"/><text fill="#000000" font-family="sans-serif" font-size="14" lengthAdjust="spacing" textLength="146" x="235.75" y="26.5332">QualityMetricCalculator</text><text fill="#000000" font-family="sans-serif" font-size="10" lengthAdjust="spacing" textLength="85" x="266.25" y="39.9902">domain.clustering</text><line style="stroke:#181818;stroke-width:0.5;" x1="8" x2="577" y1="47.1875" y2="47.1875"/><ellipse cx="18" cy="61.4922" fill="#84BE84" rx="3" ry="3" style="stroke:#038048;stroke-width:1.0;"/><text fill="#000000" font-family="sans-serif" font-size="14" lengthAdjust="spacing" textLength="425" x="27" y="65.7207">calculateSilhouette(ClusteringAnalysis, DistanceCalculator): Double</text><ellipse cx="18" cy="79.1016" fill="#84BE84" rx="3" ry="3" style="stroke:#038048;stroke-width:1.0;"/><text fill="#000000" font-family="sans-serif" font-size="14" lengthAdjust="spacing" textLength="545" x="27" y="83.3301">calculateSilhouetteForCluster(Cluster, ClusteringAnalysis, DistanceCalculator): Double</text><ellipse cx="18" cy="96.7109" fill="#84BE84" rx="3" ry="3" style="stroke:#038048;stroke-width:1.0;"/><text fill="#000000" font-family="sans-serif" font-size="14" lengthAdjust="spacing" textLength="470" x="27" y="100.9395">calculateCalinskiHarabasz(ClusteringAnalysis, DistanceCalculator): Double</text><ellipse cx="18" cy="114.3203" fill="#84BE84" rx="3" ry="3" style="stroke:#038048;stroke-width:1.0;"/><text fill="#000000" font-family="sans-serif" font-size="14" lengthAdjust="spacing" textLength="452" x="27" y="118.5488">calculateDaviesBouldin(ClusteringAnalysis, DistanceCalculator): Double</text><ellipse cx="18" cy="131.9297" fill="#84BE84" rx="3" ry="3" style="stroke:#038048;stroke-width:1.0;"/><text fill="#000000" font-family="sans-serif" font-size="14" lengthAdjust="spacing" textLength="312" x="27" y="136.1582">interpretScore(QualityMetricType, Double): String</text></g></a><text fill="#888888" font-family="sans-serif" font-size="10" lengthAdjust="spacing" textLength="184" x="200" y="160.6152">UMLDoclet 2.1.0, PlantUML 1.2022.14</text><!--SRC=[hP91IyD048Nl_ef145eCeHLFHGhQ81uiAD5JxM6wcPh1pMxOcHHIyR-xAL5HgGTrBmllpVjcO0O0G4Z1OKLIew6SQWoeFe3pZWwY3IKN15JLsiAQoHRoLQr8In_bdMuiYi3XcV2M9kFJwMs3bhMTamOsCxIciHt-mVKLesdXAsIN6jk8Kc3tU0Wey4rDzv1WiTZZfALMThc4vzrWtJislKavsz8tf4g3sNkBSuUs5PO4CXP5P-W3Dfn0vfkLfHzXbpxqk3Ti0d_dnofsyiHNSJKhbEq_Z9pXXaakV6CBTh_diOknEf3cnWSQV5h4NLjJqYTYDDUEluk-zAT2NHhMtdVV_VmwyyR6Opn9n-aeWHkBJgCAHniAmjuDXgy0]--></g></svg>