<?xml version="1.0" encoding="UTF-8" standalone="no"?><svg xmlns="http://www.w3.org/2000/svg" xmlns:xlink="http://www.w3.org/1999/xlink" contentStyleType="text/css" height="153px" preserveAspectRatio="none" style="width:539px;height:153px;background:#FFFFFF;" version="1.1" viewBox="0 0 539 153" width="539px" zoomAndPan="magnify"><defs/><g><!--class presentation.views.ResetPasswordStep2Controller--><a href="ResetPasswordStep2Controller.html" target="_top" title="ResetPasswordStep2Controller.html" xlink:actuate="onRequest" xlink:href="ResetPasswordStep2Controller.html" xlink:show="new" xlink:title="ResetPasswordStep2Controller.html" xlink:type="simple"><g id="elem_presentation.views.ResetPasswordStep2Controller"><rect codeLine="5" fill="#F1F1F1" height="118.625" id="presentation.views.ResetPasswordStep2Controller" rx="2.5" ry="2.5" style="stroke:#181818;stroke-width:0.5;" width="518" x="7" y="7"/><ellipse cx="163.25" cy="27.0938" fill="#ADD1B2" rx="11" ry="11" style="stroke:#181818;stroke-width:1.0;"/><path d="M166.0156,22.9688 Q166.1719,22.75 166.3594,22.6406 Q166.5469,22.5313 166.7656,22.5313 Q167.1406,22.5313 167.375,22.7969 Q167.6094,23.0469 167.6094,23.6563 L167.6094,25.1094 Q167.6094,25.7188 167.375,25.9844 Q167.1406,26.25 166.7656,26.25 Q166.4219,26.25 166.2188,26.0469 Q166.0156,25.8594 165.9063,25.3438 Q165.8594,24.9844 165.6719,24.7969 Q165.3438,24.4219 164.7344,24.2031 Q164.125,23.9844 163.5,23.9844 Q162.7344,23.9844 162.0938,24.3125 Q161.4688,24.6406 160.9688,25.3906 Q160.4844,26.1406 160.4844,27.1719 L160.4844,28.2656 Q160.4844,29.5 161.375,30.3281 Q162.2656,31.1406 163.8594,31.1406 Q164.7969,31.1406 165.4531,30.8906 Q165.8438,30.7344 166.2656,30.2969 Q166.5313,30.0313 166.6719,29.9531 Q166.8281,29.875 167.0313,29.875 Q167.3594,29.875 167.6094,30.1406 Q167.875,30.3906 167.875,30.7344 Q167.875,31.0781 167.5313,31.4844 Q167.0313,32.0625 166.2344,32.3906 Q165.1563,32.8438 163.8594,32.8438 Q162.3438,32.8438 161.1406,32.2188 Q160.1563,31.7188 159.4688,30.6563 Q158.7813,29.5781 158.7813,28.2969 L158.7813,27.1406 Q158.7813,25.8125 159.3906,24.6719 Q160.0156,23.5156 161.1094,22.9063 Q162.2031,22.2813 163.4375,22.2813 Q164.1719,22.2813 164.8125,22.4531 Q165.4688,22.6094 166.0156,22.9688 Z " fill="#000000"/><text fill="#000000" font-family="sans-serif" font-size="14" lengthAdjust="spacing" textLength="197" x="183.75" y="26.5332">ResetPasswordStep2Controller</text><text fill="#000000" font-family="sans-serif" font-size="10" lengthAdjust="spacing" textLength="86" x="239.25" y="39.9902">presentation.views</text><line style="stroke:#181818;stroke-width:0.5;" x1="8" x2="524" y1="47.1875" y2="47.1875"/><ellipse cx="18" cy="61.4922" fill="#84BE84" rx="3" ry="3" style="stroke:#038048;stroke-width:1.0;"/><text fill="#000000" font-family="sans-serif" font-size="14" lengthAdjust="spacing" textLength="492" x="27" y="65.7207">ResetPasswordStep2Controller(UserController, SceneManager, String, String)</text><ellipse cx="18" cy="79.1016" fill="#84BE84" rx="3" ry="3" style="stroke:#038048;stroke-width:1.0;"/><text fill="#000000" font-family="sans-serif" font-size="14" lengthAdjust="spacing" textLength="93" x="27" y="83.3301">initialize(): void</text><ellipse cx="18" cy="96.7109" fill="#84BE84" rx="3" ry="3" style="stroke:#038048;stroke-width:1.0;"/><text fill="#000000" font-family="sans-serif" font-size="14" lengthAdjust="spacing" textLength="138" x="27" y="100.9395">handleValidate(): void</text><ellipse cx="18" cy="114.3203" fill="#84BE84" rx="3" ry="3" style="stroke:#038048;stroke-width:1.0;"/><text fill="#000000" font-family="sans-serif" font-size="14" lengthAdjust="spacing" textLength="91" x="27" y="118.5488">goBack(): void</text></g></a><text fill="#888888" font-family="sans-serif" font-size="10" lengthAdjust="spacing" textLength="184" x="173.5" y="143.0059">UMLDoclet 2.1.0, PlantUML 1.2022.14</text><!--SRC=[VP7DQiD038JlVGeHADWqc2Jq54eEQOyDX9hqakOWRCLUkfRChd1eIz-zYaan_S5x4Vfc62Gj040a1SQ6Oei5vTHYG9K0B4nN9aFjIW9gMds3eoDVnj-q8Qt5SCyBZp72v2wwTrhERrTFPFbROoS9PQxKBkw5DOZt55xuOfkjsc0-LbGdd7MEJd426E4lpiO2ORyVaxDQ6tyum4S_wVdTZDcJNQGmj5F82sBQ86FLTneSLzyr7J8TEtNeRRCaNK8dhXoq6hdqz6ngYVgFNiaQYzSV_FDoMBk3RNWKEPVTvl512czVjyZcsMmAMu-iHk6wen3jN4dw1G00]--></g></svg>