<?xml version="1.0" encoding="UTF-8" standalone="no"?><svg xmlns="http://www.w3.org/2000/svg" xmlns:xlink="http://www.w3.org/1999/xlink" contentStyleType="text/css" height="245px" preserveAspectRatio="none" style="width:1035px;height:245px;background:#FFFFFF;" version="1.1" viewBox="0 0 1035 245" width="1035px" zoomAndPan="magnify"><defs/><g><!--class data.adapter.LocalDateTimeAdapter--><a href="LocalDateTimeAdapter.html" target="_top" title="LocalDateTimeAdapter.html" xlink:actuate="onRequest" xlink:href="LocalDateTimeAdapter.html" xlink:show="new" xlink:title="LocalDateTimeAdapter.html" xlink:type="simple"><g id="elem_data.adapter.LocalDateTimeAdapter"><rect codeLine="5" fill="#F1F1F1" height="83.4063" id="data.adapter.LocalDateTimeAdapter" rx="2.5" ry="2.5" style="stroke:#181818;stroke-width:0.5;" width="503" x="256" y="136"/><ellipse cx="430.75" cy="156.0938" fill="#ADD1B2" rx="11" ry="11" style="stroke:#181818;stroke-width:1.0;"/><path d="M433.5156,151.9688 Q433.6719,151.75 433.8594,151.6406 Q434.0469,151.5313 434.2656,151.5313 Q434.6406,151.5313 434.875,151.7969 Q435.1094,152.0469 435.1094,152.6563 L435.1094,154.1094 Q435.1094,154.7188 434.875,154.9844 Q434.6406,155.25 434.2656,155.25 Q433.9219,155.25 433.7188,155.0469 Q433.5156,154.8594 433.4063,154.3438 Q433.3594,153.9844 433.1719,153.7969 Q432.8438,153.4219 432.2344,153.2031 Q431.625,152.9844 431,152.9844 Q430.2344,152.9844 429.5938,153.3125 Q428.9688,153.6406 428.4688,154.3906 Q427.9844,155.1406 427.9844,156.1719 L427.9844,157.2656 Q427.9844,158.5 428.875,159.3281 Q429.7656,160.1406 431.3594,160.1406 Q432.2969,160.1406 432.9531,159.8906 Q433.3438,159.7344 433.7656,159.2969 Q434.0313,159.0313 434.1719,158.9531 Q434.3281,158.875 434.5313,158.875 Q434.8594,158.875 435.1094,159.1406 Q435.375,159.3906 435.375,159.7344 Q435.375,160.0781 435.0313,160.4844 Q434.5313,161.0625 433.7344,161.3906 Q432.6563,161.8438 431.3594,161.8438 Q429.8438,161.8438 428.6406,161.2188 Q427.6563,160.7188 426.9688,159.6563 Q426.2813,158.5781 426.2813,157.2969 L426.2813,156.1406 Q426.2813,154.8125 426.8906,153.6719 Q427.5156,152.5156 428.6094,151.9063 Q429.7031,151.2813 430.9375,151.2813 Q431.6719,151.2813 432.3125,151.4531 Q432.9688,151.6094 433.5156,151.9688 Z " fill="#000000"/><text fill="#000000" font-family="sans-serif" font-size="14" lengthAdjust="spacing" textLength="145" x="451.25" y="155.5332">LocalDateTimeAdapter</text><text fill="#000000" font-family="sans-serif" font-size="10" lengthAdjust="spacing" textLength="60" x="493.75" y="168.9902">data.adapter</text><line style="stroke:#181818;stroke-width:0.5;" x1="257" x2="758" y1="176.1875" y2="176.1875"/><ellipse cx="267" cy="190.4922" fill="#84BE84" rx="3" ry="3" style="stroke:#038048;stroke-width:1.0;"/><text fill="#000000" font-family="sans-serif" font-size="14" lengthAdjust="spacing" textLength="445" x="276" y="194.7207">serialize(LocalDateTime, Type, JsonSerializationContext): JsonElement</text><ellipse cx="267" cy="208.1016" fill="#84BE84" rx="3" ry="3" style="stroke:#038048;stroke-width:1.0;"/><text fill="#000000" font-family="sans-serif" font-size="14" lengthAdjust="spacing" textLength="477" x="276" y="212.3301">deserialize(JsonElement, Type, JsonDeserializationContext): LocalDateTime</text></g></a><!--class com.google.gson.JsonSerializer--><g id="elem_com.google.gson.JsonSerializer"><rect codeLine="10" fill="#F1F1F1" height="65.7969" id="com.google.gson.JsonSerializer" rx="2.5" ry="2.5" style="stroke:#181818;stroke-width:0.5;" width="475" x="7" y="10"/><ellipse cx="151.75" cy="30.0938" fill="#B4A7E5" rx="11" ry="11" style="stroke:#181818;stroke-width:1.0;"/><path d="M152.7031,26.7344 L152.7031,33.3906 L154.4219,33.3906 Q155.0313,33.3906 155.2969,33.625 Q155.5625,33.8594 155.5625,34.25 Q155.5625,34.625 155.2969,34.8594 Q155.0313,35.0938 154.4219,35.0938 L149.2813,35.0938 Q148.6719,35.0938 148.4063,34.8594 Q148.1406,34.625 148.1406,34.2344 Q148.1406,33.8594 148.4063,33.625 Q148.6719,33.3906 149.2813,33.3906 L151,33.3906 L151,26.7344 L149.2813,26.7344 Q148.6719,26.7344 148.4063,26.5 Q148.1406,26.2656 148.1406,25.875 Q148.1406,25.5 148.4063,25.2656 Q148.6719,25.0313 149.2813,25.0313 L154.4219,25.0313 Q155.0313,25.0313 155.2969,25.2656 Q155.5625,25.5 155.5625,25.875 Q155.5625,26.2656 155.2969,26.5 Q155.0313,26.7344 154.4219,26.7344 L152.7031,26.7344 Z " fill="#000000"/><text fill="#000000" font-family="sans-serif" font-size="14" font-style="italic" lengthAdjust="spacing" textLength="89" x="172.25" y="29.5332">JsonSerializer</text><text fill="#000000" font-family="sans-serif" font-size="10" font-style="italic" lengthAdjust="spacing" textLength="80" x="176.75" y="42.9902">com.google.gson</text><rect fill="#FFFFFF" height="17.0938" style="stroke:#181818;stroke-width:1.0;stroke-dasharray:2.0,2.0;" width="86" x="399" y="7"/><text fill="#000000" font-family="sans-serif" font-size="12" font-style="italic" lengthAdjust="spacing" textLength="84" x="400" y="20.457">LocalDateTime</text><line style="stroke:#181818;stroke-width:0.5;" x1="8" x2="481" y1="50.1875" y2="50.1875"/><ellipse cx="18" cy="64.4922" fill="#84BE84" rx="3" ry="3" style="stroke:#038048;stroke-width:1.0;"/><text fill="#000000" font-family="sans-serif" font-size="14" font-style="italic" lengthAdjust="spacing" textLength="449" x="27" y="68.7207">serialize(LocalDateTime, Type, JsonSerializationContext): JsonElement</text></g><!--class com.google.gson.JsonDeserializer--><g id="elem_com.google.gson.JsonDeserializer"><rect codeLine="13" fill="#F1F1F1" height="65.7969" id="com.google.gson.JsonDeserializer" rx="2.5" ry="2.5" style="stroke:#181818;stroke-width:0.5;" width="507" x="517" y="10"/><ellipse cx="669.75" cy="30.0938" fill="#B4A7E5" rx="11" ry="11" style="stroke:#181818;stroke-width:1.0;"/><path d="M670.7031,26.7344 L670.7031,33.3906 L672.4219,33.3906 Q673.0313,33.3906 673.2969,33.625 Q673.5625,33.8594 673.5625,34.25 Q673.5625,34.625 673.2969,34.8594 Q673.0313,35.0938 672.4219,35.0938 L667.2813,35.0938 Q666.6719,35.0938 666.4063,34.8594 Q666.1406,34.625 666.1406,34.2344 Q666.1406,33.8594 666.4063,33.625 Q666.6719,33.3906 667.2813,33.3906 L669,33.3906 L669,26.7344 L667.2813,26.7344 Q666.6719,26.7344 666.4063,26.5 Q666.1406,26.2656 666.1406,25.875 Q666.1406,25.5 666.4063,25.2656 Q666.6719,25.0313 667.2813,25.0313 L672.4219,25.0313 Q673.0313,25.0313 673.2969,25.2656 Q673.5625,25.5 673.5625,25.875 Q673.5625,26.2656 673.2969,26.5 Q673.0313,26.7344 672.4219,26.7344 L670.7031,26.7344 Z " fill="#000000"/><text fill="#000000" font-family="sans-serif" font-size="14" font-style="italic" lengthAdjust="spacing" textLength="105" x="690.25" y="29.5332">JsonDeserializer</text><text fill="#000000" font-family="sans-serif" font-size="10" font-style="italic" lengthAdjust="spacing" textLength="80" x="702.75" y="42.9902">com.google.gson</text><rect fill="#FFFFFF" height="17.0938" style="stroke:#181818;stroke-width:1.0;stroke-dasharray:2.0,2.0;" width="86" x="941" y="7"/><text fill="#000000" font-family="sans-serif" font-size="12" font-style="italic" lengthAdjust="spacing" textLength="84" x="942" y="20.457">LocalDateTime</text><line style="stroke:#181818;stroke-width:0.5;" x1="518" x2="1023" y1="50.1875" y2="50.1875"/><ellipse cx="528" cy="64.4922" fill="#84BE84" rx="3" ry="3" style="stroke:#038048;stroke-width:1.0;"/><text fill="#000000" font-family="sans-serif" font-size="14" font-style="italic" lengthAdjust="spacing" textLength="481" x="537" y="68.7207">deserialize(JsonElement, Type, JsonDeserializationContext): LocalDateTime</text></g><!--reverse link com.google.gson.JsonSerializer to data.adapter.LocalDateTimeAdapter--><g id="link_com.google.gson.JsonSerializer_data.adapter.LocalDateTimeAdapter"><path codeLine="17" d="M326.42,85.27 C358.45,101.41 395.07,119.86 426.97,135.93 " fill="none" id="com.google.gson.JsonSerializer-backto-data.adapter.LocalDateTimeAdapter" style="stroke:#181818;stroke-width:1.0;stroke-dasharray:7.0,7.0;"/><polygon fill="none" points="322.88,91.32,308.16,76.07,329.18,78.82,322.88,91.32" style="stroke:#181818;stroke-width:1.0;"/></g><!--reverse link com.google.gson.JsonDeserializer to data.adapter.LocalDateTimeAdapter--><g id="link_com.google.gson.JsonDeserializer_data.adapter.LocalDateTimeAdapter"><path codeLine="18" d="M688.58,85.27 C656.55,101.41 619.93,119.86 588.03,135.93 " fill="none" id="com.google.gson.JsonDeserializer-backto-data.adapter.LocalDateTimeAdapter" style="stroke:#181818;stroke-width:1.0;stroke-dasharray:7.0,7.0;"/><polygon fill="none" points="685.82,78.82,706.84,76.07,692.12,91.32,685.82,78.82" style="stroke:#181818;stroke-width:1.0;"/></g><text fill="#888888" font-family="sans-serif" font-size="10" lengthAdjust="spacing" textLength="184" x="418.5" y="235.7871">UMLDoclet 2.1.0, PlantUML 1.2022.14</text><!--SRC=[jPFHIm914CRV-oi68L2IHQCd4I6obp08j2VpORmRTM5tvzWT8ZF_zzPJSa_C9EeUxk2RRxwT-TqT040W0OUMGe4P3Qb0Zy8U73kwY6LOw9o0R25Bc6aoUJXKBSc2erpgcS4GeDOD-fqwxPlUW3CqVHGQQKktEHP2_iNjogrUZe8Ajt8DC40gg6FDC1uVazL2h9bCO5LEiRck0dcD9XvKhpGqORGiulqXi1lkB2YQtHqxeJTfTChIlI5BJlPnEUq34qCQr_-o70HM1YWZrrjSEZhyB89FaAM3LM1bRDMSUMv8pQEdv7MWgMfpjt9mBw6pmcaGZvci_nBK-kHIUpo_MYjjFs-nVtbbfub3zqEfdx_YRvFI9S_DseRHXZhCc3UFvyT1dpCJV-rhrLQj9ZmPT19Lk7mb7-AczSOd]--></g></svg>