<?xml version="1.0" encoding="UTF-8" standalone="no"?><svg xmlns="http://www.w3.org/2000/svg" xmlns:xlink="http://www.w3.org/1999/xlink" contentStyleType="text/css" height="186px" preserveAspectRatio="none" style="width:191px;height:186px;background:#FFFFFF;" version="1.1" viewBox="0 0 191 186" width="191px" zoomAndPan="magnify"><defs/><g><!--class domain.exception.RegisterException--><a href="RegisterException.html" target="_top" title="RegisterException.html" xlink:actuate="onRequest" xlink:href="RegisterException.html" xlink:show="new" xlink:title="RegisterException.html" xlink:type="simple"><g id="elem_domain.exception.RegisterException"><rect codeLine="5" fill="#F1F1F1" height="58.6533" id="domain.exception.RegisterException" rx="2.5" ry="2.5" style="stroke:#181818;stroke-width:0.5;" width="177" x="7" y="102.68"/><ellipse cx="39.1" cy="120.5179" fill="#ADD1B2" rx="11" ry="11" style="stroke:#181818;stroke-width:1.0;"/><path d="M42.2875,126.1585 Q40.7719,126.971 38.7406,126.971 Q36.0844,126.971 34.475,125.2523 Q32.8813,123.5335 32.8813,120.7679 Q32.8813,117.8148 34.6781,115.971 Q36.475,114.1273 39.225,114.1273 Q40.975,114.1273 42.2875,114.721 L42.2875,116.8304 Q40.6938,115.9241 39.2094,115.9241 Q37.2719,115.9241 36.0688,117.221 Q34.8656,118.5023 34.8656,120.6898 Q34.8656,122.7523 35.975,123.971 Q37.1,125.1898 38.9281,125.1898 Q40.6313,125.1898 42.2875,124.1898 L42.2875,126.1585 Z " fill="#000000"/><text fill="#000000" font-family="sans-serif" font-size="14" lengthAdjust="spacing" textLength="107" x="56.9" y="119.7113">RegisterException</text><text fill="#000000" font-family="sans-serif" font-size="10" lengthAdjust="spacing" textLength="79" x="70.9" y="131.2513">domain.exception</text><line style="stroke:#181818;stroke-width:0.5;" x1="8" x2="183" y1="138.3558" y2="138.3558"/><ellipse cx="18" cy="151.3446" fill="#84BE84" rx="3" ry="3" style="stroke:#038048;stroke-width:1.0;"/><text fill="#000000" font-family="sans-serif" font-size="14" lengthAdjust="spacing" textLength="151" x="27" y="154.387">RegisterException(String)</text></g></a><!--class java.lang.RuntimeException--><a href="https://docs.oracle.com/en/java/javase/21/docs/api/java.base/java/lang/RuntimeException.html?is-external=true" target="_top" title="https://docs.oracle.com/en/java/javase/21/docs/api/java.base/java/lang/RuntimeException.html?is-external=true" xlink:actuate="onRequest" xlink:href="https://docs.oracle.com/en/java/javase/21/docs/api/java.base/java/lang/RuntimeException.html?is-external=true" xlink:show="new" xlink:title="https://docs.oracle.com/en/java/javase/21/docs/api/java.base/java/lang/RuntimeException.html?is-external=true" xlink:type="simple"><g id="elem_java.lang.RuntimeException"><rect codeLine="9" fill="#F1F1F1" height="35.6758" id="java.lang.RuntimeException" rx="2.5" ry="2.5" style="stroke:#181818;stroke-width:0.5;" width="141" x="25" y="7"/><ellipse cx="40" cy="24.8379" fill="#ADD1B2" rx="11" ry="11" style="stroke:#181818;stroke-width:1.0;"/><path d="M43.1875,30.4785 Q41.6719,31.291 39.6406,31.291 Q36.9844,31.291 35.375,29.5723 Q33.7813,27.8535 33.7813,25.0879 Q33.7813,22.1348 35.5781,20.291 Q37.375,18.4473 40.125,18.4473 Q41.875,18.4473 43.1875,19.041 L43.1875,21.1504 Q41.5938,20.2441 40.1094,20.2441 Q38.1719,20.2441 36.9688,21.541 Q35.7656,22.8223 35.7656,25.0098 Q35.7656,27.0723 36.875,28.291 Q38,29.5098 39.8281,29.5098 Q41.5313,29.5098 43.1875,28.5098 L43.1875,30.4785 Z " fill="#000000"/><text fill="#000000" font-family="sans-serif" font-size="14" lengthAdjust="spacing" textLength="109" x="54" y="24.0313">RuntimeException</text><text fill="#000000" font-family="sans-serif" font-size="10" lengthAdjust="spacing" textLength="38" x="89.5" y="35.5713">java.lang</text></g></a><!--reverse link java.lang.RuntimeException to domain.exception.RegisterException--><g id="link_java.lang.RuntimeException_domain.exception.RegisterException"><path codeLine="11" d="M95.5,64.05 C95.5,76.66 95.5,90.46 95.5,102.24 " fill="none" id="java.lang.RuntimeException-backto-domain.exception.RegisterException" style="stroke:#181818;stroke-width:1.0;"/><polygon fill="none" points="88.5,64.25,95.5,44.25,102.5,64.25,88.5,64.25" style="stroke:#181818;stroke-width:1.0;"/></g><text fill="#888888" font-family="sans-serif" font-size="10" lengthAdjust="spacing" textLength="161" x="8" y="175.9271">UMLDoclet 2.1.0, PlantUML 1.2022.14</text><!--SRC=[ZP1DJyCm38Rl_0fh4X8JB5adJjCO5xY1X9WuZHvCwwr1JLB5tZI-_Zjf63kqWCWXaH-_TbuR0819mA4bRh2W1JKOK7m0vnqTnJHKfYGWsyWBh0pL9NUf9Qbyn8aNDJB3OCRcbQRP-VoUreQ5mlMke4QCTuzkdnlFIs_HE4NVgG4WGnUgNWTOBdjCLMBhF8UtPA8zfptDoKA2SUjXadpyOdVZn5ZwoUqpRb7LwDR9vY5ItP9ehn9fUAfrwGjMFc1HaogyrUHqMvSk9Zt9aa9ZOn9IJorDYhQpxdPEGruQ7j4kpkMmlf2meJp_6kKFHxFtqUWVYzslX5o4iFA-VHvkRwvyz2ymKPaQdy5T_48YXUCj1MxNElm4]--></g></svg>