<?xml version="1.0" encoding="UTF-8" standalone="no"?><svg xmlns="http://www.w3.org/2000/svg" xmlns:xlink="http://www.w3.org/1999/xlink" contentStyleType="text/css" height="258px" preserveAspectRatio="none" style="width:760px;height:258px;background:#FFFFFF;" version="1.1" viewBox="0 0 760 258" width="760px" zoomAndPan="magnify"><defs/><g><!--class domain.controller.QuestionController--><a href="QuestionController.html" target="_top" title="QuestionController.html" xlink:actuate="onRequest" xlink:href="QuestionController.html" xlink:show="new" xlink:title="QuestionController.html" xlink:type="simple"><g id="elem_domain.controller.QuestionController"><rect codeLine="5" fill="#F1F1F1" height="225.2031" id="domain.controller.QuestionController" rx="2.5" ry="2.5" style="stroke:#181818;stroke-width:0.5;" width="739" x="7" y="7"/><ellipse cx="307.25" cy="25.9688" fill="#ADD1B2" rx="11" ry="11" style="stroke:#181818;stroke-width:1.0;"/><path d="M310.2188,31.6094 Q309.6406,31.9063 309,32.0469 Q308.3594,32.2031 307.6563,32.2031 Q305.1563,32.2031 303.8281,30.5625 Q302.5156,28.9063 302.5156,25.7813 Q302.5156,22.6563 303.8281,21 Q305.1563,19.3438 307.6563,19.3438 Q308.3594,19.3438 309,19.5 Q309.6563,19.6563 310.2188,19.9531 L310.2188,22.6719 Q309.5938,22.0938 309,21.8281 Q308.4063,21.5469 307.7813,21.5469 Q306.4375,21.5469 305.75,22.625 Q305.0625,23.6875 305.0625,25.7813 Q305.0625,27.875 305.75,28.9531 Q306.4375,30.0156 307.7813,30.0156 Q308.4063,30.0156 309,29.75 Q309.5938,29.4688 310.2188,28.8906 L310.2188,31.6094 Z " fill="#000000"/><text fill="#000000" font-family="sans-serif" font-size="14" lengthAdjust="spacing" textLength="130" x="327.75" y="24.9951">QuestionController</text><text fill="#000000" font-family="sans-serif" font-size="10" lengthAdjust="spacing" textLength="84" x="350.75" y="37.5791">domain.controller</text><line style="stroke:#181818;stroke-width:0.5;" x1="8" x2="745" y1="44.9375" y2="44.9375"/><ellipse cx="18" cy="58.5859" fill="#84BE84" rx="3" ry="3" style="stroke:#038048;stroke-width:1.0;"/><text fill="#000000" font-family="sans-serif" font-size="14" lengthAdjust="spacing" textLength="253" x="27" y="61.9326">QuestionController(QuestionService)</text><ellipse cx="18" cy="74.8828" fill="#84BE84" rx="3" ry="3" style="stroke:#038048;stroke-width:1.0;"/><text fill="#000000" font-family="sans-serif" font-size="14" lengthAdjust="spacing" textLength="416" x="27" y="78.2295">createTextualQuestion(int, String, String, boolean): Question</text><ellipse cx="18" cy="91.1797" fill="#84BE84" rx="3" ry="3" style="stroke:#038048;stroke-width:1.0;"/><text fill="#000000" font-family="sans-serif" font-size="14" lengthAdjust="spacing" textLength="434" x="27" y="94.5264">createNumericalQuestion(int, String, String, boolean): Question</text><ellipse cx="18" cy="107.4766" fill="#84BE84" rx="3" ry="3" style="stroke:#038048;stroke-width:1.0;"/><text fill="#000000" font-family="sans-serif" font-size="14" lengthAdjust="spacing" textLength="713" x="27" y="110.8232">createMultipleChoiceQuestion(int, String, String, boolean, int, int, List&lt;String&gt;): MultipleChoiceQuestion</text><ellipse cx="18" cy="123.7734" fill="#84BE84" rx="3" ry="3" style="stroke:#038048;stroke-width:1.0;"/><text fill="#000000" font-family="sans-serif" font-size="14" lengthAdjust="spacing" textLength="300" x="27" y="127.1201">updateQuestionText(Question, String): void</text><ellipse cx="18" cy="140.0703" fill="#84BE84" rx="3" ry="3" style="stroke:#038048;stroke-width:1.0;"/><text fill="#000000" font-family="sans-serif" font-size="14" lengthAdjust="spacing" textLength="261" x="27" y="143.417">toggleRequiredStatus(Question): void</text><ellipse cx="18" cy="156.3672" fill="#84BE84" rx="3" ry="3" style="stroke:#038048;stroke-width:1.0;"/><text fill="#000000" font-family="sans-serif" font-size="14" lengthAdjust="spacing" textLength="331" x="27" y="159.7139">addOption(MultipleChoiceQuestion, String): void</text><ellipse cx="18" cy="172.6641" fill="#84BE84" rx="3" ry="3" style="stroke:#038048;stroke-width:1.0;"/><text fill="#000000" font-family="sans-serif" font-size="14" lengthAdjust="spacing" textLength="379" x="27" y="176.0107">updateOption(MultipleChoiceQuestion, int, String): void</text><ellipse cx="18" cy="188.9609" fill="#84BE84" rx="3" ry="3" style="stroke:#038048;stroke-width:1.0;"/><text fill="#000000" font-family="sans-serif" font-size="14" lengthAdjust="spacing" textLength="334" x="27" y="192.3076">removeOption(MultipleChoiceQuestion, int): void</text><ellipse cx="18" cy="205.2578" fill="#84BE84" rx="3" ry="3" style="stroke:#038048;stroke-width:1.0;"/><text fill="#000000" font-family="sans-serif" font-size="14" lengthAdjust="spacing" textLength="381" x="27" y="208.6045">updateMinSelections(MultipleChoiceQuestion, int): void</text><ellipse cx="18" cy="221.5547" fill="#84BE84" rx="3" ry="3" style="stroke:#038048;stroke-width:1.0;"/><text fill="#000000" font-family="sans-serif" font-size="14" lengthAdjust="spacing" textLength="384" x="27" y="224.9014">updateMaxSelections(MultipleChoiceQuestion, int): void</text></g></a><text fill="#888888" font-family="sans-serif" font-size="10" lengthAdjust="spacing" textLength="186" x="283" y="248.4854">UMLDoclet 2.1.0, PlantUML 1.2022.14</text><!--SRC=[fLDBJm8n4BxxAoOa9X391emdGhZW4NoX9-HGsu5jqksixUm6DVvtkmlB6XOYQWzjyittc4vQ002F35Oaw5CXSOQfS8B9WIMBPw4CiLO8cAJy1akDHlbzD46EAS0bBetm7bf3hzznqByQtMVeMPCTasL7ng1xjjjYRwGe4Tf6SbThWV3GGAEc2SpdJJ2AEJ6B1NoKdHJheabgLz0CNQubTcgoT2WO7t7DcJ0LhQqjTs76JjjLVRuG6HIsCu2AjszpaoNejFo_qJGph5E3uvX2koUvTQ6ibjj4UnvkwgEGSjYjpinI5J8hl9Z5Rc1LJ739IQjQmxHQ6Np0rqmxL3CMdFcTgi4MIjscvHKEzt8qPjFQ3zflOsaOE4meFy7WIF9KXpTZK1Oy_nUzMFzU_xdzLcWvlFebKN4yJIVN94tuk9THF-fruSu8om65ynoTBwxN-G80]--></g></svg>